<?xml version="1.0" standalone="no"?>
<!DOCTYPE svg PUBLIC "-//W3C//DTD SVG 1.1//EN" "http://www.w3.org/Graphics/SVG/1.1/DTD/svg11.dtd" >
<!--
2013-9-30: Created.
-->
<svg>
<metadata>
Created by iconfont
</metadata>
<defs>

<font id="iconfont" horiz-adv-x="1024" >
  <font-face
    font-family="iconfont"
    font-weight="500"
    font-stretch="normal"
    units-per-em="1024"
    ascent="896"
    descent="-128"
  />
    <missing-glyph />
    
    <glyph glyph-name="71" unicode="&#58988;" d="M745.162 642.715 278.824 642.715 65 270.186l0-312.9 894 0 0 312.9L745.162 642.715zM296.066 612.915l431.853 0 196.712-342.729L631.186 270.186C631.04 204.46 577.755 151.247 512 151.247S392.96 204.46 392.815 270.186L99.384 270.186 296.066 612.915zM929.2-12.914 94.8-12.914l0 253.3 271.27 0c13.954-67.777 74.136-118.938 145.93-118.938 71.794 0 131.976 51.161 145.93 118.938L929.2 240.386 929.2-12.914zM214 374.515l596 0 0-29.8-596 0 0 29.8ZM288.5 463.915l447 0 0-29.8-447 0 0 29.8ZM363 553.314l298 0 0-29.8-298 0 0 29.8Z"  horiz-adv-x="1024" />

    
    <glyph glyph-name="shuziliu" unicode="&#58970;" d="M322.325076-142.323081c0-12.138458-9.841136-21.976524-21.976524-21.976524-6.53995 0-12.247952 2.989077-16.271592 7.520277C115.926262-73.008412-4.0e-06 99.918056-4.0e-06 300.541329c0 282.46935 228.987275 511.458671 511.458671 511.458671 99.114368 0 191.297884-28.701692 269.65244-77.519538 1.305739-0.509606 2.364861-1.349741 3.535523-2.088568 0.384763-0.24457 0.796132-0.455371 1.180895-0.699941l-0.044002-0.070608c5.536087-3.990894 9.375531-10.17371 9.375531-17.517979 0-12.138458-9.841136-21.976524-21.976524-21.976524-6.318916 0-11.919471 2.741437-15.928784 7.010671C685.726689 743.369923 601.73781 769.378274 511.458667 769.378274c-258.931261 0-468.836945-209.905684-468.836945-468.836945 0-187.080839 109.849874-348.092953 268.320095-423.310052l-0.24457-0.514723C317.517583-127.01442 322.325076-134.001555 322.325076-142.323081zM514.301412 331.057343c-20.314675 0-37.546128-7.284917-51.695383-21.851681-14.153348-14.569834-21.227464-33.67496-21.227464-57.314357 0-15.483646 3.285836-30.30419 9.864672-44.452421 6.574742-14.153348 15.772218-24.934902 27.595498-32.340569 11.818163-7.40976 24.223704-11.113105 37.211507-11.113105 18.97926 0 35.293831 7.655354 48.946782 22.976294 13.650905 15.315824 20.478404 36.125779 20.478404 62.433958 0 25.304316-6.741541 45.24139-20.228717 59.811224C551.762605 323.772426 534.779815 331.057343 514.301412 331.057343zM895.052159 300.541329c0-211.854059-171.742503-383.594515-383.594515-383.594515-211.854059 0-383.594515 171.740456-383.594515 383.594515 0 211.850989 171.740456 383.594515 383.594515 383.594515C723.309656 684.135844 895.052159 512.392318 895.052159 300.541329zM631.428016 252.140992c0 34.96228-10.532891 63.47159-31.592532 85.534072-21.063735 22.059412-46.576805 33.089629-76.544327 33.089629-17.150612 0-33.549094-3.996011-49.197492-11.987009-15.651468-7.990998-28.886911-20.228717-39.708374-36.71111 0.331551 36.626175 4.577249 64.84589 12.737092 84.660168 8.15575 19.811208 19.311835 34.877345 33.464159 45.202505 10.82044 7.992021 23.38971 11.987009 37.709857 11.987009 17.813714 0 32.797987-6.411013 44.953841-19.22997 7.322779-7.992021 12.984732-20.814048 16.980743-38.458917l44.704155 3.496637c-3.663436 28.469402-14.6957 50.7785-33.089629 66.929342-18.399045 16.146749-41.999556 24.223704-70.800509 24.223704-38.627762 0-69.345368-13.985526-92.152816-41.955554-26.140357-32.133861-39.209-83.579557-39.209-154.336064 0-63.268976 11.819187-108.678188 35.462676-136.230708 23.639396-27.557636 54.19225-41.332361 91.65242-41.332361 21.977547 0 41.621956 5.244444 58.938344 15.733333 17.314341 10.488889 30.925337 25.599028 40.831964 45.327348C626.472144 207.813415 631.428016 229.165722 631.428016 252.140992z"  horiz-adv-x="1028" />

    
    <glyph glyph-name="shuziqi" unicode="&#58971;" d="M322.346569-142.323081c0-12.138458-9.841136-21.976524-21.976524-21.976524-6.53995 0-12.247952 2.989077-16.271592 7.520277C115.947755-73.008412 0.021489 99.918056 0.021489 300.541329c0 282.46935 228.987275 511.458671 511.458671 511.458671 99.114368 0 191.297884-28.701692 269.65244-77.519538 1.305739-0.509606 2.364861-1.349741 3.535523-2.088568 0.384763-0.24457 0.796132-0.455371 1.180895-0.699941l-0.044002-0.070608c5.536087-3.990894 9.375531-10.17371 9.375531-17.517979 0-12.138458-9.841136-21.976524-21.976524-21.976524-6.318916 0-11.919471 2.741437-15.928784 7.010671C685.748183 743.369923 601.759303 769.378274 511.48016 769.378274c-258.931261 0-468.836945-209.905684-468.836945-468.836945 0-187.080839 109.849874-348.092953 268.320095-423.310052l-0.24457-0.514723C317.539077-127.01442 322.346569-134.001555 322.346569-142.323081zM895.073652 300.541329c0-211.854059-171.742503-383.594515-383.594515-383.594515-211.854059 0-383.594515 171.740456-383.594515 383.594515 0 211.850989 171.740456 383.594515 383.594515 383.594515C723.331149 684.135844 895.073652 512.392318 895.073652 300.541329zM631.699196 494.634886 394.699434 494.634886l0-43.203988 179.310875 0c-22.812565-25.972535-44.329625-57.899688-64.558341-95.773274-20.228717-37.877679-35.754319-77.211523-46.574758-118.000508-10.824533-40.792055-16.482393-75.587536-16.981766-104.389512l46.200228 0c2.49789 36.461423 8.242731 70.007447 17.232476 100.644211 12.485359 43.453674 30.175253 85.74078 53.067636 126.865409 22.890336 41.120536 45.99045 74.085322 69.303412 98.895381L631.699196 494.634886z"  horiz-adv-x="1024" />

    
    <glyph glyph-name="kaiguan" unicode="&#58910;" d="M515.674692 259.215995c43.485771 0 78.723645 33.797948 78.723645 75.463652L594.398337 820.49155C594.397057 862.202052 559.160463 896 515.674692 896s-78.723645-33.797948-78.723645-75.50845l0-485.810622C436.951046 293.013943 472.18764 259.215995 515.674692 259.215995zM836.09091 681.767139c-32.420738 27.756657-82.188428 25.064955-111.132864-6.064329-28.939317-31.096006-26.100422-78.814521 6.336955-106.571178 67.077522-57.56633 109.045291-140.413924 109.07345-233.376839-0.307184-172.715628-146.017477-312.470386-326.088888-312.748132-180.066292 0.279026-325.798343 140.032503-326.083768 312.748132 0.023039 93.400653 42.382468 176.550312 109.995003 234.1384 32.552572 27.631224 35.543778 75.366377 6.729895 106.54174-28.843322 31.20992-78.563654 34.098732-111.093186 6.44575l-0.023039 0.039678C94.011822 598.219421 30.716506 473.739401 30.744664 335.754793 30.790742 79.593841 247.21357-127.960322 514.280843-128c267.060873 0.039678 483.484981 207.595121 483.524659 463.754793C997.832381 473.142951 935.134794 597.137877 836.09091 681.767139z"  horiz-adv-x="1024" />

    
    <glyph glyph-name="yunyingpanico" unicode="&#58936;" d="M218.059388 763.2383l44.807509 0 0-119.189589-44.807509 0 0 119.189589ZM319.325769 763.2383l44.807509 0 0-119.189589-44.807509 0 0 119.189589ZM736.039589 703.194786m-55.561433 0a54.296 54.296 0 1 0 111.122867 0 54.296 54.296 0 1 0-111.122867 0ZM858.81382 827.761849 165.18618 827.761849c-24.196075 0-43.015699-19.715017-43.015699-43.912116l0-161.308873c0-24.196075 19.715017-43.015699 43.015699-43.015699L858.81382 579.525162c24.196075 0 43.015699 19.716041 43.015699 43.015699L901.82952 783.849734C901.82952 808.045809 882.113479 827.761849 858.81382 827.761849zM865.086687 622.540861c0-3.584642-2.688225-6.272867-6.272867-6.272867L165.18618 616.267994c-3.584642 0-6.272867 2.688225-6.272867 6.272867L158.913313 783.849734c0 3.584642 2.688225 6.272867 6.272867 6.272867L858.81382 790.122601c3.584642 0 6.272867-2.688225 6.272867-6.272867L865.086687 622.540861zM218.059388 441.515948l44.807509 0 0-119.189589-44.807509 0 0 119.189589ZM319.325769 441.515948l44.807509 0 0-119.189589-44.807509 0 0 119.189589ZM736.039589 382.369873m-55.561433 0a54.296 54.296 0 1 0 111.122867 0 54.296 54.296 0 1 0-111.122867 0ZM858.81382 506.039497 165.18618 506.039497c-24.196075 0-43.015699-19.716041-43.015699-43.015699l0-161.308873c0-24.196075 19.715017-43.015699 43.015699-43.015699L858.81382 258.699226c24.196075 0 43.015699 19.715017 43.015699 43.015699L901.82952 463.023798C901.82952 486.32448 882.113479 506.039497 858.81382 506.039497zM865.086687 301.715949c0-3.584642-2.688225-6.272867-6.272867-6.272867L165.18618 295.443082c-3.584642 0-6.272867 2.688225-6.272867 6.272867L158.913313 463.023798c0 3.584642 2.688225 6.272867 6.272867 6.272867L858.81382 469.296665c3.584642 0 6.272867-2.688225 6.272867-6.272867L865.086687 301.715949zM218.059388 120.691035l44.807509 0 0-119.189589-44.807509 0 0 119.189589ZM319.325769 120.691035l44.807509 0 0-119.189589-44.807509 0 0 119.189589ZM736.039589 60.648544m-55.561433 0a54.296 54.296 0 1 0 111.122867 0 54.296 54.296 0 1 0-111.122867 0ZM858.81382 185.214585 165.18618 185.214585c-24.196075 0-43.015699-19.715017-43.015699-43.015699l0-161.308873c0-24.196075 19.715017-43.015699 43.015699-43.015699L858.81382-62.125687c24.196075 0 43.015699 19.715017 43.015699 43.015699L901.82952 142.198885C901.82952 165.499567 882.113479 185.214585 858.81382 185.214585zM865.086687-19.109987c0-3.584642-2.688225-6.272867-6.272867-6.272867L165.18618-25.382854c-3.584642 0-6.272867 2.688225-6.272867 6.272867L158.913313 142.198885c0 2.688225 2.688225 5.376451 6.272867 5.376451L858.81382 147.575336c3.584642 0 6.272867-2.688225 6.272867-6.272867L865.086687-19.109987z"  horiz-adv-x="1024" />

    
    <glyph glyph-name="chaxun" unicode="&#58924;" d="M933.602 64.53 721.175 278.738c-2.472 2.479-5.204 4.372-7.813 6.435 35.884 55.518 56.836 121.647 56.836 192.878 0 195.694-157.298 354.31-351.461 354.31-194.054 0-351.461-158.616-351.461-354.31 0-195.722 157.407-354.302 351.461-354.302 70.631 0 136.303 21.179 191.459 57.361 2.009-2.692 3.852-5.369 6.283-7.827l212.454-214.235c14.506-14.579 33.396-21.849 52.314-21.849 18.932 0 37.836 7.268 52.328 21.814C962.436-11.824 962.436 35.39 933.602 64.53M418.737 235.63c-132.562 0-240.468 108.767-240.468 242.421 0 133.634 107.907 242.428 240.468 242.428 132.561 0 240.467-108.794 240.467-242.428C659.204 344.398 551.298 235.63 418.737 235.63"  horiz-adv-x="1024" />

    
    <glyph glyph-name="xuanxiang" unicode="&#58898;" d="M283.529495 700.368414l673.725358 0 0-102.523001-673.725358 0 0 102.523001ZM109.972671 700.368414l10.252505 0c25.484418 0 46.13576-20.651342 46.13576-46.13576l0-10.252505c0-25.484418-20.651342-46.13576-46.13576-46.13576l-10.252505 0c-25.484418 0-46.13576 20.651342-46.13576 46.13576l0 10.252505C63.836911 679.717072 84.488253 700.368414 109.972671 700.368414zM283.529495 436.737108l673.725358 0 0-102.523001-673.725358 0 0 102.523001ZM109.972671 436.737108l10.252505 0c25.484418 0 46.13576-20.651342 46.13576-46.13576l0-10.252505c0-25.484418-20.651342-46.13576-46.13576-46.13576l-10.252505 0c-25.484418 0-46.13576 20.651342-46.13576 46.13576l0 10.252505C63.836911 416.085766 84.488253 436.737108 109.972671 436.737108zM283.529495 173.104779l673.725358 0 0-102.523001-673.725358 0 0 102.523001ZM109.972671 173.104779l10.252505 0c25.484418 0 46.13576-20.651342 46.13576-46.13576l0-10.252505c0-25.484418-20.651342-46.13576-46.13576-46.13576l-10.252505 0c-25.484418 0-46.13576 20.651342-46.13576 46.13576l0 10.252505C63.836911 152.453437 84.488253 173.104779 109.972671 173.104779z"  horiz-adv-x="1024" />

    
    <glyph glyph-name="2" unicode="&#58972;" d="M322.347-58.323c0-12.138-9.841-21.977-21.977-21.977-6.54 0-12.248 2.989-16.272 7.52-168.151 83.771-284.077 256.697-284.077 457.321 0 282.469 228.987 511.459 511.459 511.459 99.114 0 191.298-28.702 269.652-77.52 1.306-0.51 2.365-1.35 3.536-2.089 0.385-0.245 0.796-0.455 1.181-0.7l-0.044-0.071c5.536-3.991 9.376-10.174 9.376-17.518 0-12.138-9.841-21.977-21.977-21.977-6.319 0-11.919 2.741-15.929 7.011-71.527 44.232-155.516 70.241-245.795 70.241-258.931 0-468.837-209.906-468.837-468.837 0-187.081 109.85-348.093 268.32-423.31l-0.245-0.515c6.82-3.731 11.628-10.718 11.628-19.040zM895.074 384.541c0-211.854-171.743-383.595-383.595-383.595-211.854 0-383.595 171.74-383.595 383.595 0 211.851 171.74 383.595 383.595 383.595 211.852 0 383.595-171.744 383.595-383.595zM632.045 246.145h-179.56c4.995 8.156 11.32 16.271 18.979 24.349 7.656 8.074 24.974 23.432 51.945 46.076 32.298 27.303 55.399 48.78 69.301 64.431 13.901 15.647 23.85 30.55 29.844 44.703 5.994 14.149 8.99 28.551 8.99 43.204 0 28.802-10.239 52.944-30.718 72.423-20.478 19.48-48.286 29.218-83.412 29.218-34.799 0-62.52-9.034-83.162-27.096-20.646-18.066-32.552-44.328-35.712-78.792l46.201-4.745c0.164 22.975 6.743 40.956 19.729 53.943 12.986 12.986 30.299 19.48 51.944 19.48 20.478 0 37.087-6.118 49.823-18.356 12.737-12.237 19.105-27.265 19.105-45.078 0-16.982-6.993-35.005-20.978-54.067-13.985-19.066-40.874-44.914-80.664-77.542-25.641-20.979-45.245-39.459-58.812-55.442-13.572-15.983-23.436-32.216-29.594-48.699-3.832-9.99-5.58-20.397-5.244-31.217h241.993l-0 43.206z"  horiz-adv-x="1024" />

    
    <glyph glyph-name="B" unicode="&#58894;" d="M648.533333-128V895.829333H532.059022L382.520889 772.152889v-135.168l149.549511 122.231467V-128z"  horiz-adv-x="1024" />

    
    <glyph glyph-name="B1" unicode="&#58895;" d="M717.565187-128v103.817846H433.140747l226.123956 480.683605c31.282637 66.841319 58.300484 153.6 58.300484 228.970901 0 75.370901-24.170901 125.153055-59.729583 159.282637C622.276923 878.884571 571.076923 895.954989 515.623385 895.954989c-55.464791 0-110.929582-19.917363-146.488264-54.046945C333.57644 806.349363 312.263736 760.843253 312.263736 686.890198v-65.41222h115.194374V689.737143c0 68.259165 39.823473 102.4 88.176527 102.4 48.353055 0 86.758681-34.140835 86.758682-102.4 0-81.064791-22.764308-146.477011-45.517363-196.247912L309.416791-31.305143V-128h408.148396z"  horiz-adv-x="1024" />

    
    <glyph glyph-name="B2" unicode="&#58896;" d="M714.206609 164.474435c0 112.528696-7.034435 151.919304-33.758609 196.930782-12.655304 21.103304-32.356174 39.390609-56.264348 54.873044 22.505739 14.057739 42.195478 33.747478 54.861913 56.253217 21.092174 39.401739 26.724174 81.586087 26.724174 164.585739 0 109.723826-18.287304 167.401739-59.080348 208.194783-32.356174 32.356174-78.781217 50.643478-137.861565 50.643478-54.861913 0-104.091826-18.287304-139.252869-52.057043-35.172174-35.172174-54.873043-81.586087-54.873044-154.735305v-64.701217h113.953391v70.333217c0 66.114783 33.758609 98.470957 80.172522 98.470957 25.321739 0 43.609043-8.448 57.677913-23.919304 21.103304-25.321739 25.321739-67.517217 25.321739-139.264 0-71.735652-4.229565-118.160696-28.137739-143.471305-14.057739-14.08-30.942609-22.51687-54.861913-22.516869h-53.448348v-95.654957h53.448348c26.735304 0 47.827478-9.850435 61.896348-28.137739 23.919304-29.540174 29.540174-71.735652 29.540174-170.206609 0-88.620522-5.62087-140.666435-29.540174-168.804174-14.06887-16.873739-35.172174-26.724174-61.885217-26.724173-47.838609 0-87.218087 33.758609-87.218087 101.286956V143.36H307.678609v-64.712348c0-74.551652 22.505739-118.160696 57.666782-153.332869 35.172174-33.758609 88.620522-53.448348 143.482435-53.448348 54.873043 0 109.723826 19.70087 143.482435 53.448348 54.873043 54.873043 61.896348 118.171826 61.896348 239.148521z"  horiz-adv-x="1024" />

    
    <glyph glyph-name="B3" unicode="&#58904;" d="M717.047533 214.687265c0 140.778903-5.693264 220.417097-48.347742 273.029162-31.2792 36.972465-71.109548 56.876387-126.556994 56.876387-28.443819 0-55.469948-7.110955-75.373871-18.486232-18.486232-11.375277-36.972465-29.86151-49.765432-48.347742V792.013537h287.251071V895.842479H311.768113v-590.141743h109.488452V339.83782c0 63.987342 38.390155 102.388748 88.166839 102.388749 27.014877 0 49.765432-11.386529 65.405032-34.137084 22.761806-34.125832 27.026129-91.00222 27.026129-201.919614 0-110.917394-4.275574-176.333678-28.443819-210.45951-15.6396-21.332865-38.390155-31.2792-63.987342-31.2792-49.776684 0-88.166839 32.708142-88.166839 106.653072v68.251664H306.097352v-58.305329c0-75.362619 22.750555-120.863729 58.305329-156.418503 35.554774-34.125832 89.584529-52.612065 145.031975-52.612065 55.469948 0 112.346336 21.332865 146.472167 58.305329 58.305329 61.14071 61.151961 137.932271 61.151962 284.393188z"  horiz-adv-x="1024" />

    
    <glyph glyph-name="B4" unicode="&#58915;" d="M727.108267 799.482311V895.829333H297.1648v-255.965866h113.595733V790.846578h198.439823L338.864356-128h117.919288z"  horiz-adv-x="1024" />

    
    <glyph glyph-name="B5" unicode="&#58916;" d="M718.755491 186.262496c0 162.098735-14.221753 209.028271-51.193812 253.111206-31.278856 36.972058-73.944117 58.293437-125.137928 58.293437-27.014581 0-52.611487-8.528551-72.51519-24.16798L634.853897 895.831229h-118.027052L346.188307 440.791377C319.173726 369.68261 304.951973 288.638868 304.951973 186.262496c0-136.513081 9.957478-191.971168 51.193812-246.011581 32.707783-42.654009 86.748195-68.250915 154.99911-68.250915 62.557713 0 120.862401 21.33263 156.416784 68.250915 36.972058 48.347211 51.193812 102.387623 51.193812 246.011581z m-115.180451 1.417675c0-88.16587-1.428926-152.152509-28.443506-184.860292-15.639428-18.486029-38.389733-27.014581-63.986639-27.014581-25.596906 0-46.929536 8.528551-62.568965 27.014581-27.014581 32.707783-28.443507 96.694422-28.443506 184.860292s1.428926 152.152509 28.443506 184.860291c15.639428 18.486029 38.389733 28.432255 62.557713 28.432256 24.190482 0 48.358462-9.946226 63.997891-28.432256 27.014581-32.707783 28.443507-96.694422 28.443506-184.860291z"  horiz-adv-x="1024" />

    
    <glyph glyph-name="B6" unicode="&#58968;" d="M719.889406 161.754206c0 111.111768-8.458027 151.91062-33.765335 194.089467-12.653654 21.100552-32.351954 40.798852-56.25701 56.268139 22.502804 15.469287 42.189975 35.167587 54.854758 57.67039 21.089423 39.374342 28.12294 80.162066 28.12294 163.150894 0 108.296135-14.067035 165.966526-59.072642 210.972134C620.017911 877.670565 569.381037 895.955484 514.526279 895.955484S410.448029 877.670565 376.693823 843.90523c-45.005608-45.005608-59.072643-102.675999-59.072643-210.972134 0-82.988828 7.033517-123.776551 28.12294-163.150894 12.664783-22.513933 32.351954-42.201104 54.865887-57.67039-23.927314-15.469287-45.016737-35.167587-57.67039-56.25701C317.62118 313.653697 310.587662 272.865974 310.587662 161.754206c0-123.776551 8.435769-181.446942 60.474895-234.888319 33.754206-35.167587 88.608964-54.865887 143.463722-54.865887 54.865887 0 111.122897 19.6983 144.877103 54.865887 52.039125 53.441377 60.474895 111.111768 60.474895 234.888319zM598.917359 628.715211c0-70.335174-2.815633-119.558666-29.536322-146.279355-14.067035-14.067035-33.754206-21.100552-54.854758-21.100552-21.089423 0-39.374342 5.631265-53.441377 19.6983-26.731818 26.70956-29.536321 77.346433-29.536321 147.681607 0 70.324045 4.217885 116.743034 26.720688 142.06147 14.067035 15.469287 33.754206 22.502804 56.25701 22.502804s42.201104-7.033517 56.268139-22.502804c22.502804-25.318437 28.12294-71.737426 28.122941-142.06147z m7.033517-461.340869c0-85.793331-5.620137-137.832457-29.536321-167.379906-14.067035-18.27379-37.972091-25.307308-61.877147-25.307308-23.927314 0-46.418989 7.033517-60.486023 25.318436-23.916185 30.938573-29.536321 81.575447-29.536322 167.379907 0 95.631352 2.815633 139.234709 29.536322 170.184411 15.469287 16.871538 36.569839 26.70956 60.474894 26.70956 23.916185 0 46.40786-8.42464 61.888276-26.70956 26.720689-30.938573 29.536321-74.553058 29.536321-170.19554z"  horiz-adv-x="1024" />

    
    <glyph glyph-name="B7" unicode="&#58969;" d="M718.27411 581.654505c0 136.529582-9.958681 191.994374-51.2 246.030066C634.362374 870.354989 580.315429 895.954989 512.056264 895.954989 449.490989 895.954989 391.179253 874.61978 355.620571 827.684571c-36.976527-48.353055-51.2-102.4-51.2-246.030066 0-162.129582 14.223473-209.053538 51.2-253.141802 31.282637-36.976527 73.953055-58.311736 125.153055-58.311736 27.017846 0 52.617846 8.529582 72.535209 24.182154L388.332308-128H506.373626l170.659165 455.083604c27.017846 71.117363 41.241319 152.170901 41.241319 254.570901z m-115.194374-1.417846c0-88.176527-1.417846-152.170901-28.446945-184.882637-15.641319-18.488264-39.81222-28.446945-63.994373-28.446945-24.170901 0-46.923956 9.958681-62.565275 28.446945-27.029099 32.711736-28.446945 96.70611-28.446945 184.882637 0 88.165275 1.417846 152.170901 28.435692 184.882638 15.641319 18.477011 36.976527 27.006593 62.576528 27.006593s48.353055-8.529582 63.994373-27.006593c27.029099-32.711736 28.446945-96.717363 28.446945-184.882638z"  horiz-adv-x="1024" />

    
    <glyph glyph-name="calendar" unicode="&#59401;" d="M905.6 796.8H118.4v-694.4h787.2V796.8z m-64-102.4H182.4V732.8h659.2v-38.4zM182.4 166.39999999999998V662.4h659.2v-499.2H182.4zM300.8 409.6m-25.6 0a25.6 25.6 0 1 1 51.2 0 25.6 25.6 0 1 1-51.2 0ZM441.6 409.6m-25.6 0a25.6 25.6 0 1 1 51.2 0 25.6 25.6 0 1 1-51.2 0ZM585.6 409.6m-25.6 0a25.6 25.6 0 1 1 51.2 0 25.6 25.6 0 1 1-51.2 0ZM726.4 409.6m-25.6 0a25.6 25.6 0 1 1 51.2 0 25.6 25.6 0 1 1-51.2 0ZM441.6 560m-25.6 0a25.6 25.6 0 1 1 51.2 0 25.6 25.6 0 1 1-51.2 0ZM585.6 560m-25.6 0a25.6 25.6 0 1 1 51.2 0 25.6 25.6 0 1 1-51.2 0ZM726.4 556.8m-25.6 0a25.6 25.6 0 1 1 51.2 0 25.6 25.6 0 1 1-51.2 0ZM300.8 268.79999999999995m-25.6 0a25.6 25.6 0 1 1 51.2 0 25.6 25.6 0 1 1-51.2 0ZM441.6 268.79999999999995m-25.6 0a25.6 25.6 0 1 1 51.2 0 25.6 25.6 0 1 1-51.2 0ZM585.6 268.79999999999995m-25.6 0a25.6 25.6 0 1 1 51.2 0 25.6 25.6 0 1 1-51.2 0Z"  horiz-adv-x="1024" />

    
    <glyph glyph-name="ditu" unicode="&#58883;" d="M930.752 616.438l-83.101 24.696c-15.71 87.584-87.583 145.988-177.431 145.988-87.583 0-159.455-56.139-177.43-139.24l-125.773-35.925c-4.482-2.241-8.986-2.241-11.227-2.241-4.482 0-8.987 0-13.469 2.241l-220.078 62.885c-4.482 2.241-8.987 2.241-13.469 2.241-24.72 0-44.935-20.215-44.935-44.912v-530.027c0-20.215 13.469-38.189 31.443-42.671l247.039-76.355c4.481-2.241 8.987-2.241 13.469-2.241s8.987 0 11.227 2.241l289.711 83.101c4.482 2.241 8.987 2.241 11.227 2.241 4.481 0 8.987 0 13.469-2.241l220.102-67.367c4.482-2.241 8.987-2.241 13.469-2.241 24.697 0 44.912 20.215 44.912 44.912V573.768c2.289 20.214-11.18 38.189-29.155 42.67z m-574.939-53.899v-536.773l-247.062 76.378V632.171l222.342-65.127c8.987-2.241 15.734-2.241 24.72-4.505 0 2.264 0 2.264 0 0 0 2.264 0 0 0 0zM670.22 742.21c76.355 0 134.76-56.139 134.76-130.253 0-29.203-11.228-60.645-33.684-92.088-29.202-40.431-69.632-101.076-101.076-148.229-31.442 44.912-71.872 107.798-101.074 148.229-22.456 31.443-33.685 62.885-33.685 92.088 0.024 74.114 58.405 130.253 134.759 130.253z m247.064-702.951l-220.102 67.368H692.7V245.868c0 13.469-8.987 22.456-22.456 22.456s-22.456-8.987-22.456-22.456V106.627h-4.482l-242.557-67.368v523.28c0 4.482-2.241 6.746-2.241 11.229l94.33 26.961c2.24-40.429 20.215-74.114 40.429-105.557 26.962-38.189 69.632-101.076 101.076-145.986 8.987-13.47 22.456-20.216 38.189-20.216 15.71 0 29.203 6.746 38.19 20.216 29.202 44.911 71.873 107.797 101.074 145.986 20.216 29.203 38.189 62.887 40.43 101.076l67.368-20.215V39.26h-2.31v-0.001zM670.22 540.083c38.189 0 67.368 29.202 67.368 67.368 0 38.189-29.202 67.368-67.368 67.368-38.189 0-67.368-29.202-67.368-67.368s29.203-67.368 67.368-67.368z m0 89.847c13.469 0 22.456-8.986 22.456-22.455 0-13.47-8.987-22.456-22.456-22.456s-22.456 8.986-22.456 22.456c0 13.469 8.988 22.455 22.456 22.455z"  horiz-adv-x="1024" />

    
    <glyph glyph-name="liebiao" unicode="&#58884;" d="M207.722 666.057h721.165c17.37 0 31.452 14.083 31.452 31.452 0 17.372-14.083 31.452-31.452 31.452H207.722c-17.372 0-31.452-14.082-31.452-31.452-0.001-17.369 14.081-31.452 31.452-31.452zM98.257 697.51m-34.596 0a34.596 34.596 0 1 1 69.192 0 34.596 34.596 0 1 1-69.192 0ZM928.887 415.452H207.722c-17.372 0-31.452-14.082-31.452-31.452s14.082-31.452 31.452-31.452h721.165c17.37 0 31.452 14.083 31.452 31.452 0 17.371-14.082 31.452-31.452 31.452zM98.257 384m-34.596 0a34.596 34.596 0 1 1 69.192 0 34.596 34.596 0 1 1-69.192 0ZM928.887 101.943H207.722c-17.372 0-31.452-14.083-31.452-31.454 0-17.37 14.082-31.452 31.452-31.452h721.165c17.37 0 31.452 14.083 31.452 31.452 0 17.371-14.082 31.454-31.452 31.454zM98.257 70.49m-34.596 0a34.596 34.596 0 1 1 69.192 0 34.596 34.596 0 1 1-69.192 0Z"  horiz-adv-x="1024" />

    
    <glyph glyph-name="chuangjianxilie" unicode="&#58886;" d="M391.224 211.67h97.626v-96.78c0-15.544 12.736-28.189 28.391-28.189 15.656 0 28.392 12.645 28.392 28.189v96.78h97.626c15.655 0 28.391 12.645 28.391 28.187 0 15.542-12.736 28.186-28.391 28.186h-97.626v96.78c0 15.542-12.736 28.187-28.392 28.187-15.655 0-28.391-12.645-28.391-28.187v-96.78h-97.626c-15.656 0-28.393-12.643-28.393-28.186 0-15.542 12.737-28.187 28.393-28.187zM747.295 710.827H467.85c-13.679 6.808-63.144 97.845-63.144 97.845-23.276 26.736-47.231 23.257-47.231 23.257v-0.002h-80.771c-112.651 0-204.303-90.793-204.303-202.389v-83.825h3.494a200.742 200.742 0 0 1-3.494-37.275v-370.123c0-111.596 91.535-202.392 204.045-202.392h470.895c112.627 0 204.256 90.796 204.256 202.392V508.438c0.001 111.595-91.651 202.389-204.302 202.389zM144.579 545.712h0.072v83.825c0 72.066 59.238 130.719 132.055 130.719h68.557l-0.004-0.024c13.84-8.178 38.485-44.43 62.28-89.331 17.544-33.104 56.383-31.85 58.697-31.745h281.06c65.842 0 120.574-47.961 130.453-110.429h-733.17v16.985z m734.768-407.397c0-72.069-59.215-130.719-132.005-130.719H276.447c-72.673 0-131.797 58.649-131.797 130.719V458.898h734.697v-320.583z"  horiz-adv-x="1024" />

    
    <glyph glyph-name="huishouzhan" unicode="&#58888;" d="M954.202 313.606a6.184 6.184 0 0 1-0.1 0.265l-0.086 0.223c-0.057 0.135-0.104 0.272-0.152 0.411a9.972 9.972 0 0 1-0.288 0.753 7.689 7.689 0 0 1-0.521 0.969c-0.073 0.12-0.148 0.239-0.223 0.387-0.063 0.121-0.115 0.247-0.167 0.371a8.094 8.094 0 0 1-0.465 0.953L838.164 507.9c-4.123 6.869-11.664 11.136-19.68 11.136a22.901 22.901 0 0 1-11.446-3.078l-152.98-88.326c-5.313-3.068-9.111-8.024-10.695-13.955-1.557-5.843-0.706-12.194 2.33-17.422l100.09-172.238h-50.306v24.362c0 9.471-5.687 17.837-14.484 21.315a22.79 22.79 0 0 1-8.436 1.613 23.033 23.033 0 0 1-16.72-7.231L528.436 128.461c-8.269-8.804-8.269-22.599 0-31.404l127.4-135.619a23.033 23.033 0 0 1 16.715-7.226 22.72 22.72 0 0 1 8.438 1.613c8.8 3.484 14.486 11.851 14.486 21.316v24.362h92.658c7.945 0 15.449 4.213 19.583 10.993l107.611 176.556 36.54 60.138c0.114 0.182 0.203 0.371 0.283 0.571l0.185 0.322c0.289 0.502 0.589 1.019 0.862 1.626 0.119 0.268 0.22 0.54 0.318 0.814 0.059 0.163 0.117 0.328 0.221 0.573l0.05 0.124c0.038 0.093 0.075 0.188 0.11 0.281 4.107 9.755 6.188 19.988 6.188 30.415 0.002 10.166-1.978 20.155-5.882 29.69z m-39.976-29.693c0-4.261-0.832-8.44-2.472-12.424l-28.847-47.481-84.081 0.016L696.901 399.41l113.544 65.556 101.473-169.034a32.55 32.55 0 0 0 2.308-12.019z m-59.257-105.762l-79.711-130.787H672.547c-9.319 0-17.689-5.772-21.187-14.174l-74.747 79.569 74.741 79.566c3.499-8.402 11.871-14.174 21.193-14.174h182.422zM704.157 507.453a23.07 23.07 0 0 1 5.244-0.61c10.021 0 19.043 6.708 21.941 16.312l53.745 178.141c2.732 9.063-0.295 18.717-7.715 24.595a23.05 23.05 0 0 1-14.246 4.958 22.919 22.919 0 0 1-11.457-3.074l-21.098-12.181-46.331 80.243c-3.972 6.877-11.37 11.268-19.311 11.46l-206.844 4.919-70.216 1.57-0.151 0.002c-0.316 0-0.622-0.029-0.928-0.063-0.129-0.014-0.258-0.03-0.459-0.036l-0.28 0.008a7.296 7.296 0 0 1-1.011-0.016 9.718 9.718 0 0 1-0.727-0.109c-0.123-0.022-0.246-0.046-0.446-0.07l-0.291-0.042c-0.232-0.033-0.464-0.066-0.692-0.108-10.414-1.339-20.236-4.638-29.193-9.806-8.796-5.078-16.455-11.786-22.766-19.94-0.069-0.081-0.135-0.163-0.202-0.245l-0.136-0.17c-0.094-0.122-0.195-0.238-0.295-0.354-0.163-0.19-0.326-0.381-0.487-0.594a7.67 7.67 0 0 1-0.588-0.954c-0.065-0.12-0.129-0.241-0.198-0.349-0.074-0.116-0.157-0.223-0.239-0.332-0.179-0.239-0.401-0.535-0.606-0.901L220.683 585.964c-6.032-10.87-2.181-24.769 8.585-30.983l152.982-88.323a22.956 22.956 0 0 1 17.432-2.283c5.922 1.597 10.868 5.408 13.927 10.731l99.113 172.799 25.152-43.567-21.093-12.181c-8.199-4.732-12.602-13.841-11.218-23.206 1.384-9.364 8.231-16.812 17.445-18.976l181.149-42.522z m-217.965 186.37L385.263 517.875l-113.547 65.551 95.645 172.38a32.456 32.456 0 0 0 9.258 8.019 32.355 32.355 0 0 0 12.016 4.069l55.52-1.246 42.037-72.825z m102.862-86.408l-91.211 157.986 153.124-3.64 51.358-88.951a22.966 22.966 0 0 1 15.224-10.988c2.514-0.519 5.12-0.612 7.641-0.278l-31.528-104.513-106.285 24.943c5.525 7.229 6.337 17.366 1.677 25.441zM480.046 235.639l-199.203-0.561 25.152 43.567 21.094-12.18a22.971 22.971 0 0 1 11.352-3.071l0.202-0.002c12.643 0 22.929 10.286 22.929 22.929 0 2.937-0.546 5.792-1.622 8.488l-53.186 176.276c-2.899 9.6-11.926 16.306-21.952 16.306-1.756 0-3.519-0.204-5.242-0.607L98.421 444.26c-9.212-2.164-16.06-9.612-17.445-18.976-1.385-9.366 3.019-18.475 11.218-23.206l21.098-12.181-46.327-80.243c-3.972-6.882-4.073-15.484-0.266-22.452l98.882-181.076 0.003-1.637h0.892l33.129-60.466c0.193-0.361 0.406-0.644 0.577-0.872 0.067-0.09 0.136-0.178 0.195-0.27 0.07-0.111 0.129-0.227 0.19-0.341 0.139-0.263 0.312-0.589 0.555-0.924 0.181-0.25 0.376-0.485 0.571-0.717 0.109-0.13 0.218-0.258 0.377-0.463l0.075-0.095c0.063-0.081 0.127-0.163 0.194-0.242 6.401-8.434 14.218-15.35 23.234-20.557 8.713-5.03 18.277-8.296 28.428-9.708 0.068-0.012 0.145-0.025 0.256-0.041l0.134-0.022c0.2-0.027 0.397-0.064 0.593-0.101 0.329-0.06 0.659-0.12 0.989-0.157 0.84-0.098 1.716-0.147 2.608-0.147h0.004c0.135 0 0.277 0 0.39 0.003l221.53 3.774c12.429 0.21 22.541 10.495 22.541 22.926V212.722c0 6.047-2.455 11.966-6.741 16.243-4.336 4.304-10.087 6.674-16.259 6.674zM166.545 404.99a22.94 22.94 0 0 1-3.75 7.274l106.281 24.949 31.535-104.517a23.23 23.23 0 0 1-8.948-0.578 22.799 22.799 0 0 1-13.921-10.684L186.53 163.449l-73.408 134.426 51.354 88.951a23.008 23.008 0 0 1 2.069 18.164z m290.637-215.271v-131.112l-197.113-3.361a32.54 32.54 0 0 0-11.573 4.008c-3.688 2.129-6.894 4.947-9.534 8.378l-26.679 48.699 42.049 72.813 202.85 0.575z"  horiz-adv-x="1024" />

    
    <glyph glyph-name="guankan" unicode="&#58889;" d="M905.878 462.814L330.881 807.713l-8.468 4.306c-4.865 2.067-49.249 20.028-96.467 20.028-81.698 0-134.564-53.26-134.564-135.554v-654.621l3.552-10.097c12.336-35.614 53.777-95.821 130.215-95.821 24.305 0 49.457 6.437 77.17 20.344l568.416 315.915 5.576 3.552c39.138 27.161 81.426 95.419 37.896 172.31l-8.329 14.739M240.062 69.57c-8.274-4.126-12.938-4.779-14.445-4.901-0.789 0.646-1.78 1.751-2.827 3.1V696.492c0 2.77 0.144 5.03 0.402 6.702 12.149 0.631 34.861-4.959 44.197-8.31L795.29 378.273 240.062 69.57m0 0"  horiz-adv-x="1024" />

    
    <glyph glyph-name="paixu" unicode="&#58890;" d="M407.568 741.981c-11.952 11.925-26.904 17.894-41.853 17.894-5.972 0-11.952-2.984-17.929-2.984h-2.992c-8.964-5.961-14.94-11.941-20.921-17.902L81.77 497.366c-23.912-23.862-23.912-59.669 0-80.551 11.956-11.929 26.901-17.894 41.841-17.894 14.948 0 29.896 5.965 41.845 17.894l146.459 146.177v-495.198c0-32.815 26.908-56.677 56.797-56.677 29.892 0 56.789 26.854 56.789 56.677V697.225c-0.001 14.925-5.973 32.819-17.933 44.756zM942.59 354.169c-11.956 11.941-26.904 17.905-41.849 17.905-14.944 0-29.889-5.965-41.845-17.905L709.45 205.023V700.209c0 32.819-26.901 56.681-56.785 56.681-29.892 0-56.797-26.85-56.797-56.681v-635.391c0-32.811 26.904-56.693 56.797-56.693 14.944 0 29.885 5.98 41.841 17.905l245.097 244.615c26.896 23.859 26.896 59.658 2.987 83.524z"  horiz-adv-x="1024" />

    
    <glyph glyph-name="qunliao" unicode="&#58891;" d="M784.344-42.278c-12.192 0-23.923 3.469-33.94 10.041l-32.314 20.83c-1.648 0.879-4.025 2.303-6.403 4.525l-18.779 12.422c-72.405-9.644-143.027 2.402-204.866 35.003-11.388 6.009-15.664 19.959-9.535 31.141 2.93 5.386 7.926 9.4 13.875 11.161a23.77 23.77 0 0 0 17.847-1.782c55.295-29.164 119.103-39.127 184.489-28.76a23.837 23.837 0 0 0 16.805-3.628l28.817-19.034c0.96-0.641 1.899-1.361 2.767-2.133l33.136-21.387c4.369-2.884 9.106-3.175 16.355-0.886 4.138 2.856 6.562 7.232 6.562 12.008v58.643c0.004 7.657 3.887 14.818 10.36 19.091 65.017 42.872 103.829 110.157 103.829 179.972 0 16.419-1.899 32.42-5.63 47.574-3.359 13.51-8.458 27.183-15.09 40.615-5.648 11.427-0.801 25.192 10.839 30.741 11.664 5.538 25.638 0.783 31.286-10.64 8.096-16.352 14.297-33.118 18.478-49.838 4.62-18.74 6.952-38.394 6.952-58.452 0-81.326-42.444-159.365-114.186-211.01v-46.695c0-21.787-12.188-42.072-31.811-52.942a23.049 23.049 0 0 0-3.476-1.58c-9.378-3.36-17.998-5-26.367-5m-36.158 63.157l0.025-0.032-0.025 0.032M281.533 46.712c-10.222 0-20.444 2.569-29.525 7.444-19.37 9.889-32.129 30.624-32.129 52.591v75.126C121.903 248.102 63.816 350.854 63.816 459.097c0 193.641 181.789 351.181 405.225 351.181 223.46 0 405.246-157.54 405.246-351.181 0-193.638-181.786-351.174-405.246-351.174-22.138 0-44.803 1.697-67.465 5.042l-36.112-23.481c-1.736-1.417-3.27-2.385-4.319-3.033l-46.791-30.287c-8.717-5.973-20.562-9.452-32.821-9.452m187.508 717.565c-197.616 0-358.388-136.908-358.388-305.18 0-96.41 54.313-188.202 145.291-245.541 6.714-4.231 10.775-11.529 10.771-19.363v-87.445c0-4.865 3.019-9.793 7.317-12.008 6.041-3.235 12.465-1.548 14.02-0.514l46.586 30.184c0.709 0.436 1.006 0.627 1.052 0.627 0 0 0-0.021-0.025-0.053a20.79 20.79 0 0 0 2.583 1.963l45.058 29.323a23.879 23.879 0 0 0 16.876 3.504c23.165-3.887 46.334-5.85 68.858-5.85 197.638 0 358.412 136.904 358.412 305.173 0.001 168.272-160.773 305.18-358.411 305.18M334.659 124.073c0-0.011-0.025-0.021-0.025-0.032 0 0.011 0.025 0.018 0.025 0.032M364.833 462.286c0-21.624-17.957-39.265-39.974-39.265-22.017 0-39.978 17.641-39.978 39.265 0 21.62 17.96 39.258 39.978 39.258 22.017 0 39.974-17.637 39.974-39.258z m147.162-7.518c0-19.544-16.238-35.488-36.14-35.488-19.905 0-36.137 15.944-36.137 35.488 0 19.548 16.231 35.492 36.137 35.492 19.901 0 36.14-15.945 36.14-35.492z m133.035 0c0-19.544-16.238-35.488-36.137-35.488-19.906 0-36.14 15.944-36.14 35.488 0 19.548 16.235 35.492 36.14 35.492 19.899 0 36.137-15.945 36.137-35.492z"  horiz-adv-x="1024" />

    
    <glyph glyph-name="sousuo" unicode="&#58892;" d="M928.783 1.041L761.478 170.4a38.529 38.529 0 0 1-6.06 4.993c66.309 69.825 107.128 164.078 107.128 267.743 0 214.607-174.598 389.205-389.205 389.205S84.136 657.743 84.136 443.136 258.734 53.93 473.341 53.93c84.392 0 162.533 27.086 226.368 72.902 1.794-3.73 4.065-7.292 7.137-10.401l167.305-169.359c14.902-15.087 39.215-15.235 54.3-0.332 15.087 14.903 15.236 39.214 0.332 54.301zM150.86 443.136c0 177.824 144.657 322.481 322.481 322.481S795.822 620.96 795.822 443.136 651.165 120.655 473.341 120.655 150.86 265.312 150.86 443.136z"  horiz-adv-x="1024" />

    
    <glyph glyph-name="tianjiahuiyuan" unicode="&#58893;" d="M745.556 344.774c-22.029 14.212-45.29 26.194-69.356 36.119 57.165 46.81 93.711 117.756 93.711 197.045 0 140.572-114.814 254.994-255.892 254.994-141.132 0-255.891-114.422-255.891-254.994 0-79.176 36.415-150.043 93.434-196.855C186.001 313.254 77.097 149.616 77.097-36.873c0-15.497 12.562-28.058 28.058-28.058s28.058 12.562 28.058 28.058c0 174.298 108.136 325.699 269.023 376.652 3.364 1.065 6.332 2.765 8.94 4.837 31.507-13.845 66.25-21.671 102.842-21.671 36.551 0 71.266 7.811 102.752 21.638 2.707-2.064 5.658-3.824 9.033-4.803a370.441 370.441 0 0 0 89.337-42.143 27.349 27.349 0 0 1 15.207-4.49 28.058 28.058 0 0 1 26.898 20.131 28.051 28.051 0 0 1-11.689 31.496z m-231.537 34.287c-110.156 0-199.774 89.225-199.774 198.877s89.618 198.877 199.774 198.877c110.158 0 199.775-89.225 199.775-198.877s-89.617-198.877-199.775-198.877zM918.844 135.236h-84.175v84.118c0 15.497-12.562 28.058-28.058 28.058-15.495 0-28.058-12.562-28.058-28.058v-84.118h-84.174c-15.497 0-28.058-12.562-28.058-28.058 0-15.497 12.562-28.058 28.058-28.058h84.174v-84.062c0-15.497 12.563-28.058 28.058-28.058 15.497 0 28.058 12.562 28.058 28.058V79.12h84.175c15.495 0 28.058 12.562 28.058 28.058 0.001 15.496-12.562 28.058-28.058 28.058z"  horiz-adv-x="1024" />

    
    <glyph glyph-name="saoyisao" unicode="&#58897;" d="M132.876 103.968V202.5H63.944v-98.532c0-92.82 75.203-168.023 168.02-168.023h98.538v68.929h-98.538c-54.63 0-99.088 44.432-99.088 99.094zM792.033 832.055h-98.535v-68.929h98.535c54.629 0 99.091-44.426 99.091-99.088v-98.505h68.932v98.505c0 92.814-75.206 168.017-168.023 168.017zM132.876 664.038c0 54.662 44.459 99.088 99.088 99.088h98.538V832.055h-98.538c-92.817 0-168.02-75.203-168.02-168.017v-98.505h68.932v98.505zM891.124 103.968c0-54.662-44.462-99.094-99.091-99.094h-98.535v-68.929h98.535c92.817 0 168.023 75.203 168.023 168.023V202.5h-68.932v-98.532zM63.944 418.125h896.113v-68.212H63.944z"  horiz-adv-x="1024" />

    
    <glyph glyph-name="shanchu" unicode="&#58899;" d="M353.67 126.013c-7.62 0-13.787-6.083-13.787-13.577v-27.159c0-7.497 6.167-13.577 13.787-13.577 7.62 0 13.787 6.08 13.787 13.577v27.159c0 7.494-6.167 13.577-13.787 13.577zM353.67 424.73c-7.62 0-13.787-6.083-13.787-13.582v-230.825c0-7.497 6.167-13.574 13.787-13.574 7.62 0 13.787 6.077 13.787 13.574V411.148c0 7.5-6.167 13.582-13.787 13.582zM519.109 424.73c-7.62 0-13.787-6.083-13.787-13.582v-325.871c0-7.497 6.167-13.577 13.787-13.577 7.62 0 13.787 6.08 13.787 13.577V411.148c0 7.5-6.167 13.582-13.787 13.582zM684.548 424.73c-7.62 0-13.787-6.083-13.787-13.582v-325.871c0-7.497 6.167-13.577 13.787-13.577 7.62 0 13.787 6.08 13.787 13.577V411.148c0 7.5-6.167 13.582-13.787 13.582zM918.056 619.135a75.258 75.258 0 0 0-0.108-1.764c0.066-1.412 0.108-2.825 0.108-4.24v6.004zM806.101 720.059l-67.431 0.031c-5.88 75.746-38.858 111.986-141.257 111.986H431.974c-94.972 0-127.166-28.912-132.583-111.787l-79.708 0.036c-62.821 0-113.739-42.722-113.739-95.407v-5.783c0-47.775 41.864-87.351 96.505-94.318v-458.211c0-112.527 34.09-130.682 133.449-130.682h357.587c107.116 0 142.285 26.868 142.285 130.682V524.047c60.202 1.169 80.179 65.405 82.179 93.324-2.478 52.614-50.669 102.688-111.848 102.688z m-374.127 57.705h165.439c62.157 0 81.858-5.994 86.148-57.649l-329.492 0.149c1.98 49.8 13.479 57.5 77.905 57.5z m261.511-787.536H335.898c-80.133 0-78.302 5.002-78.302 76.378v457.14l523.026 0.248v-457.388c0-74.236-9.681-76.378-87.137-76.378z m112.616 582.797l-586.418-3.036c-32.368 0-58.592 22.009-58.592 49.146v5.783c0 27.145 26.224 49.151 58.592 49.151l586.418-3.019c32.368 0 56.01-21.121 56.01-49.014 0-27.884-23.642-49.011-56.01-49.011z"  horiz-adv-x="1024" />

    
    <glyph glyph-name="tianjia" unicode="&#58900;" d="M960.083 383.999c0-21.998-17.834-39.829-39.832-39.829H103.745c-21.998 0-39.829 17.831-39.829 39.829s17.831 39.829 39.829 39.829h816.506c21.999-0.001 39.832-17.832 39.832-39.829zM512 832.085c21.995 0 39.829-17.834 39.829-39.835v-816.503c0-22.001-17.834-39.832-39.829-39.832-21.998 0-39.832 17.831-39.832 39.832V792.25c0 22.001 17.834 39.835 39.832 39.835z"  horiz-adv-x="1024" />

    
    <glyph glyph-name="erweima" unicode="&#58901;" d="M91.666 832.058h358.908c36.5-3.567 27.703-66.963 27.703-108.152v-196.1c0-42.618 8.134-94.857-20.474-106.964-18.631-7.883-68.633-2.375-92.739-2.375H174.771c-43.989 0-104.054-10.362-110.805 27.335V804.725c4.92 13.368 13.571 23.053 27.7 27.333z m49.38-80.817v-255.523h258.946v259.09h-257.74c-1.403-0.2-1.307-1.879-1.206-3.567z m432.377 80.817h358.908c14.64-5.359 24.701-15.243 27.703-32.088v-349.415c-3.286-14.521-10.966-26.923-25.292-30.902-23.413-6.5-62.312-1.186-90.331-1.186H660.14c-27.789 0-68.973-5.777-91.535 1.186-31.849 9.834-22.882 71.184-22.882 114.097V716.775c0 49.548-11.022 108.359 27.7 115.283z m49.381-80.817v-255.523h258.943v259.09h-257.74c-1.401-0.2-1.308-1.879-1.203-3.567z m-363.727-74.873c36.064 6.715 64.424-17.331 65.039-49.918 0.807-42.973-43.672-66.577-78.287-48.729-39.6 20.426-36.995 89.289 13.248 98.647z m481.757 0c84.945 15.659 83.317-117.093 0-103.4-53.024 8.714-54.733 93.307 0 103.4zM448.166-64.058H92.872c-14.751 4.46-24.716 13.642-28.907 28.521V322.197c3.51 10.47 11.608 22.681 24.088 26.149 23.578 6.546 62.085 1.186 90.328 1.186h184.274c27.234 0 66.867 5.999 91.532-1.186 33.369-9.723 24.088-70.075 24.088-112.908v-188.967c0.002-46.231 10.089-106.404-30.109-110.529z m-307.12 332.773v-255.523h258.946v259.09h-257.74c-1.403-0.2-1.307-1.879-1.206-3.567z m818.988 48.73v-99.833c-2.811-33.674-0.403-72.495-1.207-108.152H702.294v58.234c-24.091 2.775-53.395 0.4-79.491 1.192-2.811-75.273-0.4-155.693-1.204-232.943h-46.973c-40.386 7.988-28.904 67.787-28.904 115.28V235.44c0 27.7-5.682 69.224 1.204 91.514 8.215 26.591 43.842 22.58 79.491 22.58h174.634v-158.068h80.695c0.801 52.293-1.607 107.755 1.204 158.068 38.834 2.269 74.802 1.71 77.084-32.089zM265.099 195.032c38.507 4.206 70.341-32.315 55.403-72.498-20.707-55.701-119.71-34.764-101.169 35.655 5.123 19.463 19.928 34.02 45.766 36.843z m523.912-259.09h-86.717c0.801 30.505-1.607 64.176 1.204 92.703h85.513v-92.703z m171.023 92.703v-60.615c-3.352-16.901-13.364-27.222-28.907-32.088h-61.425c0.804 30.505-1.604 64.176 1.207 92.703h89.125z"  horiz-adv-x="1024" />

    
    <glyph glyph-name="chuangjianqunliao" unicode="&#58902;" d="M694.445 489.941H547.641V635.522c0 19.489-15.991 35.346-35.641 35.346-19.654 0-35.641-15.858-35.641-35.346v-145.581H329.552c-19.651 0-35.641-15.858-35.641-35.344 0-19.489 15.991-35.346 35.641-35.346h146.807v-145.584c0-19.486 15.988-35.344 35.641-35.344 19.651 0 35.641 15.858 35.641 35.344V419.251h146.804c19.654 0 35.641 15.858 35.641 35.346 0.001 19.487-15.987 35.344-35.641 35.344zM744.143 832.056H279.857c-111.142 0-201.567-89.578-201.567-199.679v-365.165c0-110.101 90.309-199.679 201.31-199.679h85.221l98.702-114.808c1.891-2.2 3.995-4.085 6.201-5.771 0.361-0.376 0.636-0.812 1.015-1.174 6.676-6.34 15.436-9.836 24.681-9.836 9.801 0 18.931 3.886 25.699 10.868l116.82 120.72h106.25c111.119 0 201.521 89.578 201.521 199.679V632.377c0 110.101-90.425 199.679-201.567 199.679z m130.281-564.845c0-71.104-58.42-128.969-130.235-128.969H622.758c-9.662 0-19.026-3.975-25.725-10.87l-101.602-104.99-107.667 116.835-61.115-0.974H279.6c-71.696 0-130.027 57.865-130.027 128.969V632.377c0 71.101 58.443 128.966 130.284 128.966h464.286c71.838 0 130.281-57.865 130.281-128.966v-365.166z"  horiz-adv-x="1024" />

    
    <glyph glyph-name="yuyin" unicode="&#58903;" d="M344.96 533.3530000000001l-146.526-150.83L347.89 231.68600000000004c79.122 82.808 79.122 218.856-2.93 301.667zM494.413 681.235l-73.263-73.941c123.083-124.215 123.083-325.328 0-449.546l73.263-73.938c164.11 165.625 164.11 431.797 0 597.425zM640.944 832.066l-73.266-73.941c205.138-207.023 205.138-541.221 0-748.256l73.266-73.935c246.163 245.478 246.163 647.699 0 896.132z"  horiz-adv-x="1024" />

    
    <glyph glyph-name="pinglun" unicode="&#58906;" d="M716.518 503.815c-28.037 0-50.743-24.206-50.743-54.131 0-29.878 22.706-54.076 50.743-54.076 28.035 0 50.69 24.198 50.69 54.076 0.051 29.924-22.655 54.131-50.69 54.131zM513.602 503.815c-28.009 0-50.688-24.206-50.688-54.131 0-29.878 22.711-54.076 50.688-54.076 27.977 0 50.686 24.198 50.686 54.076 0 29.924-22.65 54.131-50.686 54.131zM817.95 802.107H209.256c-70.911 0-145.378-36.701-145.378-149.387v-388.393c0-77.342 37.231-164.357 147.643-146.566h142.984c36.225-39.165 130.679-139.679 130.679-139.679 7.408-7.934 17.737-12.517 28.413-12.517 10.649 0 21.005 4.583 29.198 13.437 0.812 0.837 73.86 86.027 125.656 138.784h147.147c94.443-8.808 144.524 69.206 144.524 146.541V682.604c0.029 74.993-39.733 124.353-142.172 119.503z m82.422-149.388v-388.393c0-46.304-43.817-90.735-84.688-90.735H646.56l-7.922-7.855c-42.552-42.497-102.812-108.363-126.305-135.403-28.71 30.495-104.78 110.635-126.49 134.469l-8.002 8.736H211.526c-52.679 0-87.897 44.485-87.897 90.789V652.719c0 44.182 44.592 93.606 85.628 93.606h608.745c43.464 4.853 89.648-27.509 82.37-93.606zM310.687 503.815c-28.005 0-50.688-24.206-50.688-54.131 0-29.878 22.739-54.076 50.688-54.076 27.984 0 50.718 24.198 50.718 54.076 0 29.924-22.683 54.131-50.718 54.131z"  horiz-adv-x="1024" />

    
    <glyph glyph-name="rijianmoshi" unicode="&#58907;" d="M512.001 598.928c-118.511 0-214.929-96.418-214.929-214.93 0-118.509 96.418-214.926 214.929-214.926 118.509 0 214.927 96.416 214.927 214.926 0 118.512-96.418 214.93-214.927 214.93z m0-371.777c-86.485 0-156.85 70.362-156.85 156.847 0 86.49 70.365 156.853 156.85 156.853s156.848-70.363 156.848-156.853c0-86.485-70.363-156.847-156.848-156.847zM512.001 634.285c16.017 0 29.042 13.027 29.042 29.039V802.983c0 16.012-13.026 29.039-29.042 29.039-16.009 0-29.036-13.027-29.036-29.039v-139.659c-0.001-16.012 13.027-29.039 29.036-29.039zM512.001 133.718c-16.009 0-29.036-13.027-29.036-29.039v-139.665c0-16.011 13.027-29.036 29.036-29.036 16.017 0 29.042 13.026 29.042 29.036V104.679c0 16.012-13.026 29.039-29.042 29.039zM261.716 383.998c0 16.012-13.027 29.038-29.041 29.038H93.014c-16.009 0-29.036-13.026-29.036-29.038s13.027-29.039 29.036-29.039h139.662c16.013-0.001 29.04 13.027 29.04 29.039zM930.986 413.036H791.32c-16.008 0-29.035-13.026-29.035-29.038s13.027-29.039 29.035-29.039h139.666c16.009 0 29.036 13.027 29.036 29.039s-13.027 29.038-29.036 29.038zM258.7 596.193c5.503-5.446 12.78-8.451 20.484-8.463h0.049c7.768 0.012 15.048 3.027 20.502 8.485 5.481 5.479 8.5 12.771 8.5 20.532 0 7.762-3.019 15.054-8.5 20.532l-93.104 93.104c-5.476 5.479-12.769 8.497-20.53 8.497-7.764 0-15.055-3.018-20.532-8.497-11.317-11.325-11.317-29.741 0-41.057l93.131-93.133zM279.206 180.236c-7.761 0-15.052-3.018-20.529-8.497l-93.109-93.109c-11.317-11.319-11.317-29.738 0.023-41.081 5.506-5.448 12.78-8.452 20.487-8.464h0.042c7.771 0.012 15.057 3.025 20.511 8.487l93.104 93.107c5.481 5.476 8.5 12.769 8.5 20.529 0 7.764-3.019 15.055-8.5 20.532-5.477 5.479-12.764 8.496-20.529 8.496zM765.277 171.739c-5.479 5.479-12.772 8.497-20.532 8.497-7.761 0-15.049-3.018-20.526-8.497-5.481-5.478-8.5-12.771-8.5-20.532 0-7.762 3.019-15.052 8.5-20.526l93.128-93.133c5.506-5.446 12.778-8.452 20.487-8.464h0.045c7.765 0.012 15.049 3.025 20.506 8.487 11.317 11.323 11.317 29.741 0 41.059l-93.108 93.109zM744.723 587.731h0.052c7.756 0.012 15.037 3.027 20.502 8.485l93.109 93.11c11.317 11.316 11.317 29.735 0 41.057-5.479 5.479-12.771 8.497-20.531 8.497s-15.052-3.018-20.529-8.497l-93.106-93.104c-5.481-5.479-8.5-12.771-8.5-20.532 0-7.762 3.019-15.055 8.518-20.55 5.496-5.445 12.773-8.454 20.485-8.466z"  horiz-adv-x="1024" />

    
    <glyph glyph-name="yejianmoshi" unicode="&#58908;" d="M928.708 264.835c-10.55 7.873-25.681 7.958-36.323 0.221-51.451-37.408-112.368-57.181-176.162-57.181-165.384 0-299.932 134.55-299.932 299.934 0 102.947 51.881 197.53 138.788 253.004 11.363 7.254 16.617 20.867 13.072 33.884-3.553 13.003-14.989 22.065-28.459 22.548-6.098 0.219-11.2 0.319-16.041 0.319-243.004 0-440.702-197.698-440.702-440.702s197.698-440.699 440.702-440.699c186.509 0 353.539 118.118 415.629 293.922 4.494 12.72 0.247 26.686-10.572 34.75z m-405.054-267.41c-209.224 0-379.44 170.216-379.44 379.437 0 180.42 128.231 335.588 302.461 371.598-59.303-66.024-91.65-150.461-91.646-240.65 0-199.165 162.029-361.198 361.194-361.198 43.171 0 85.003 7.411 124.72 22.06-69.831-106.273-189.028-171.247-317.289-171.247zM578.717 342.282c3.913-13.058 15.702-21.832 29.335-21.835h161.76c16.891 0 30.632 13.741 30.632 30.632 0 16.891-13.741 30.632-30.632 30.632h-59.625l76.481 50.411c11.382 7.503 16.395 21.315 12.483 34.371-3.916 13.054-15.703 21.83-29.338 21.832H608.057c-16.891 0-30.632-13.739-30.632-30.63 0-16.893 13.741-30.632 30.632-30.632h59.62l-76.481-50.411c-11.382-7.503-16.395-21.32-12.479-34.37zM738.675 559.729c3.134-10.427 12.55-17.432 23.437-17.438h99.261c8.714 0 16.834 4.689 21.189 12.237 4.359 7.544 4.359 16.919 0 24.47-4.355 7.546-12.476 12.232-21.189 12.232h-17.678l31.145 20.529c9.094 5.994 13.099 17.031 9.97 27.457-3.076 10.265-12.713 17.436-23.437 17.441h-99.261c-13.493 0-24.467-10.977-24.467-24.47 0-13.491 10.973-24.468 24.467-24.468h17.678l-31.149-20.531c-9.084-5.994-13.089-17.027-9.966-27.459zM797.023 751.009c2.534-8.457 10.168-14.141 19.006-14.15h83.87a19.915 19.915 0 0 1 17.192 9.926 19.91 19.91 0 0 1-0.004 19.851 19.912 19.912 0 0 1-17.188 9.917h-17.696l28.627 18.868c7.363 4.863 10.607 13.812 8.076 22.267-2.536 8.457-10.17 14.141-19.007 14.15h-83.87c-7.071 0-13.661-3.803-17.188-9.919a19.895 19.895 0 0 1-0.004-19.851c3.53-6.123 10.12-9.924 17.192-9.924h17.696l-28.627-18.868c-7.364-4.863-10.608-13.814-8.075-22.267z"  horiz-adv-x="1024" />

    
    <glyph glyph-name="ziti" unicode="&#58909;" d="M377.282 692.359c-2.691 7.177-9.868 12.109-17.94 12.109h-38.573c-7.625 0-14.801-4.484-17.942-12.109L65.112 97.621c-5.382-13.008 4.036-26.912 17.942-26.912H99.2c8.073 0 15.249 4.934 17.94 12.11l58.757 146.217c2.689 7.177 9.866 12.11 17.94 12.11h289.296c7.625 0 14.8-4.484 17.94-12.11l58.756-146.666c2.691-7.175 9.867-12.109 17.94-12.109h19.737c13.454 0 22.874 13.904 17.94 26.91L377.282 692.359z m69.971-399.184H226.58c-13.904 0-23.323 13.904-17.942 26.91l111.683 283.017c6.727 16.596 30.051 16.596 36.328 0L465.64 319.638c4.935-12.559-4.483-26.463-18.387-26.463zM959.464 169.384V378.393c-2.243 93.742-54.72 141.734-157.431 143.976-85.668 0-138.592-32.742-158.777-98.226-3.588-12.558 5.831-25.117 18.838-25.117h14.353c8.522 0 16.147 5.382 18.39 13.904 11.213 40.816 47.095 61.448 106.748 61.448 65.933 2.243 100.468-28.257 102.71-92.396v-21.529c0-10.764-8.522-19.287-19.287-19.287h-31.396c-68.623-2.241-117.961-9.418-147.562-20.631-57.412-25.117-87.015-67.727-89.257-126.931 4.486-81.63 53.376-125.136 145.77-130.072h3.588c65.485 4.935 110.337 26.462 135.452 65.037l3.59 6.727 2.241-46.645c0.449-10.316 8.972-18.39 19.287-18.39h14.352c11.662 0 20.185 9.868 19.287 21.529-2.243 25.116-2.691 51.131-0.896 77.594z m-184.791-64.587c-64.139 2.241-97.33 32.292-99.573 89.256-2.241 68.622 63.691 101.365 199.144 99.122h12.11c10.316 0 19.286-8.522 19.286-18.838 1.347-110.784-42.161-167.298-130.967-169.54z"  horiz-adv-x="1024" />

    
    <glyph glyph-name="chongzhi" unicode="&#58911;" d="M640.754 362.468c17.764 0 32.127 14.394 32.127 32.123 0 17.74-14.363 32.131-32.127 32.131h-97.476v1.314l119.063 124.365c12.244 12.845 12.044 33.186-0.805 45.422-12.789 12.212-32.959 11.762-45.267-1.123L514.266 489.493l-108.01 107.788c-12.594 12.554-32.895 12.499-45.43-0.064-12.526-12.566-13.136-32.899-0.578-45.43l118.777-119.095v-5.97h-95.161c-17.736 0-32.131-14.391-32.131-32.127 0-17.732 14.395-32.123 32.131-32.123h95.161v-64.261h-95.161c-17.736 0-32.131-14.359-32.131-32.123 0-17.764 14.395-32.131 32.131-32.131h95.161v-95.512c0-17.764 14.395-32.127 32.123-32.127 17.736 0 32.131 14.363 32.131 32.127v95.512h97.476c17.764 0 32.127 14.367 32.127 32.131s-14.363 32.123-32.127 32.123h-97.476v64.261h97.476v-0.004h-0.001zM512.004-64.03c-60.47 0-119.151 11.845-174.407 35.218-53.352 22.568-101.263 54.87-142.4 96.006-41.136 41.136-73.438 89.044-96.006 142.4C75.823 264.849 63.97 323.526 63.97 383.996c0 60.474 11.853 119.151 35.222 174.403 22.568 53.356 54.87 101.267 96.006 142.404s89.048 73.438 142.4 96.002C392.853 820.177 451.534 832.03 512.004 832.03c60.466 0 119.147-11.853 174.403-35.226 53.352-22.564 101.263-54.866 142.4-96.002 41.136-41.136 73.438-89.048 96.002-142.404 23.372-55.252 35.222-113.929 35.222-174.403 0-60.47-11.849-119.147-35.222-174.403-22.564-53.356-54.866-101.263-96.002-142.4-41.136-41.136-89.048-73.438-142.4-96.006-55.256-23.371-113.937-35.216-174.403-35.216z m0 832.324c-211.903 0-384.298-172.392-384.298-384.298 0-211.899 172.395-384.294 384.298-384.294 211.899 0 384.294 172.396 384.294 384.294 0 211.907-172.395 384.298-384.294 384.298z"  horiz-adv-x="1024" />

    
    <glyph glyph-name="tixian" unicode="&#58912;" d="M829.485 767.908h-634.97c-71.875 0-130.355-58.398-130.355-130.181v-507.448c0-71.786 58.48-130.188 130.355-130.188h634.971c71.882 0 130.355 58.402 130.355 130.188V637.7280000000001c-0.001 71.782-58.474 130.18-130.356 130.18z m-699.17-637.629V637.7280000000001c0 35.342 28.8 64.094 64.196 64.094h634.974c35.403 0 64.203-28.752 64.203-64.094l-0.167-81.983H643.336c-92.976 0-168.615-75.537-168.615-168.389 0-92.849 75.639-168.393 168.615-168.393h250.352v-88.682c0-35.342-28.8-64.094-64.203-64.094H194.511c-35.396-0.002-64.196 28.75-64.196 64.092z m410.551 257.065c0 56.415 45.966 102.309 102.463 102.309h250.189v-204.608H643.329c-56.497 0-102.463 45.894-102.463 102.299zM648.721 328.97c32.243 0 58.477 26.186 58.477 58.374 0 32.192-26.233 58.381-58.477 58.381-32.253 0-58.494-26.189-58.494-58.381 0.001-32.188 26.241-58.374 58.494-58.374z"  horiz-adv-x="1024" />

    
    <glyph glyph-name="nan" unicode="&#58913;" d="M394.296 466.508c-1.32 19.612-19.047 34.284-37.859 33.046-78.493-5.357-112.488-63.961-119.499-94.206-4.396-18.894 7.268-37.487 26.08-42.184a34.668 34.668 0 0 1 8.493-1.055c15.782 0 30.267 10.726 34.525 26.623 1.666 6.145 12.08 36.956 55.214 39.894 19.601 1.343 34.388 18.294 33.046 37.882zM674.792 482.956c0-14.424 11.693-26.117 26.117-26.117 14.424 0 26.117 11.694 26.117 26.117 0 14.424-11.693 26.117-26.117 26.117-14.423 0.001-26.117-11.693-26.117-26.117M723.148 454.105c-18.119-7.533-26.704-28.336-19.16-46.468 14.67-35.254 22.099-72.662 22.099-111.18 0-159.612-129.865-289.467-289.466-289.467a293.158 293.158 0 0 0-47.625 3.889 292.283 292.283 0 0 0-17.24 3.401c-19.136 4.305-38.204-7.614-42.555-26.739-4.373-19.138 7.59-38.194 26.727-42.567a354.682 354.682 0 0 1 21.497-4.235 364.99 364.99 0 0 1 59.194-4.836c198.801 0 360.555 161.742 360.555 360.555 0 47.935-9.28 94.53-27.561 138.485-7.497 18.109-28.278 26.717-46.465 19.162zM912.392 832.096c-0.107 0-0.205-0.031-0.312-0.031-0.108 0-0.205 0.031-0.313 0.031H569.749c-19.624 0-35.545-15.91-35.545-35.545 0-19.634 15.921-35.544 35.545-35.544h256.518L651.327 586.05c-61.878 45.926-136.868 70.962-214.707 70.962-198.801 0-360.555-161.741-360.555-360.555 0-124.069 62.596-237.909 167.423-304.53a35.492 35.492 0 0 1 19.045-5.542c11.756 0 23.257 5.82 30.015 16.476 10.529 16.568 5.646 38.54-10.923 49.07-84.209 53.5-134.471 144.906-134.471 244.526 0 159.614 129.866 289.468 289.468 289.468 72.036 0 141.065-26.612 194.358-74.942 14.531-13.156 37.026-12.08 50.214 2.465 1.31 1.442 1.838 3.229 2.867 4.812l192.788 192.805v-256.533c0-19.635 15.921-35.544 35.544-35.544 19.622 0 35.544 15.909 35.544 35.544V796.551c-0.002 19.635-15.922 35.545-35.545 35.545z"  horiz-adv-x="1024" />

    
    <glyph glyph-name="nv" unicode="&#58914;" d="M632.19 305.995c1.274-19.444 18.865-34.026 37.615-32.753 77.888 5.324 111.567 63.423 118.512 93.513 4.398 18.749-7.175 37.151-25.924 41.895a35.2 35.2 0 0 1-8.449 1.042c-15.623 0-29.975-10.647-34.257-26.388-1.62-6.133-12.037-36.687-54.742-39.581-19.445-1.503-34.028-18.285-32.755-37.728zM302.115 289.676c0-14.317 11.607-25.924 25.924-25.924 14.319 0 25.926 11.607 25.926 25.924 0 14.319-11.607 25.926-25.926 25.926-14.317-0.001-25.924-11.608-25.924-25.926M305.935 318.262c17.938 7.524 26.502 28.124 18.98 46.063-14.583 34.951-21.874 72.102-21.874 110.295 0 158.325 128.812 287.137 287.137 287.137 15.855 0 31.712-1.272 47.22-3.819 5.787-0.926 11.459-2.084 17.129-3.356 18.98-4.282 37.961 7.523 42.243 26.503 4.282 18.981-7.523 37.845-26.504 42.243a328.643 328.643 0 0 1-21.294 4.166c-19.329 3.126-39.003 4.746-58.678 4.746-197.211 0-357.734-160.408-357.734-357.736 0-47.566 9.259-93.745 27.312-137.377 7.407-17.707 28.008-26.272 46.063-18.865zM781.835 776.802c-5.902 3.704-12.383 5.556-18.865 5.556-11.689 0-23.03-5.786-29.743-16.319-10.417-16.434-5.556-38.191 10.879-48.724 83.444-53.122 133.326-143.742 133.326-242.579 0-158.324-128.814-287.138-287.138-287.138-69.556 0-136.335 25-188.531 70.599-0.464 0.578-1.042 1.156-1.62 1.736-2.546 2.546-5.324 4.629-8.333 6.249-12.385 7.292-28.124 6.482-39.581-2.43a35.863 35.863 0 0 1-4.514-3.818l-82.287-82.288L164.16 278.913c-14.351 14.351-37.961 14.351-52.428 0-14.351-14.351-14.351-37.961 0-52.428L213 125.217 86.849-1.049c-14.35-14.351-14.35-37.961 0-52.427 14.351-14.351 37.961-14.351 52.428 0L265.543 72.79l107.17-107.17c14.351-14.351 37.961-14.351 52.428 0 14.351 14.351 14.351 37.961 0 52.428L317.74 125.217l61.107 61.109c61.108-44.789 134.831-69.209 211.447-69.209 197.212-0.116 357.62 160.408 357.62 357.62 0 123.025-62.033 235.981-166.079 302.065z"  horiz-adv-x="1024" />

    
    <glyph glyph-name="shuziyi" unicode="&#58882;" d="M322.347-58.32299999999998c0-12.139-9.842-21.977-21.977-21.977-6.54 0-12.248 2.99-16.272 7.52C115.948 10.993000000000052 0.021 183.91899999999998 0.021 384.542 0.021 667.011 229.01 896 511.481 896c99.114 0 191.297-28.702 269.652-77.52 1.305-0.51 2.364-1.35 3.535-2.088 0.385-0.245 0.796-0.455 1.181-0.7l-0.044-0.07c5.536-3.992 9.376-10.174 9.376-17.519 0-12.138-9.842-21.976-21.977-21.976-6.319 0-11.92 2.741-15.929 7.01C685.748 827.37 601.76 853.379 511.48 853.379c-258.931 0-468.837-209.905-468.837-468.837 0-187.08 109.85-348.093 268.32-423.31l-0.244-0.514c6.82-3.731 11.628-10.719 11.628-19.04zM895.074 384.54c0-211.854-171.743-383.594-383.595-383.594-211.854 0-383.594 171.74-383.594 383.594 0 211.851 171.74 383.595 383.594 383.595 211.852 0 383.595-171.744 383.595-383.595z m-343.93 191.127h-28.97c-7.827-15.819-21.146-32.134-39.958-48.947-18.816-16.82-40.792-31.136-65.93-42.956v-43.453c13.986 5.159 29.758 12.9 47.325 23.225 17.563 10.322 31.755 20.643 42.58 30.968v-286.447h44.954v367.61z"  horiz-adv-x="1024" />

    
    <glyph glyph-name="shuzisan-copy" unicode="&#58885;" d="M511.48 768.136c-211.853 0-383.593-171.742-383.593-383.595 0-211.853 171.741-383.594 383.593-383.594 211.853 0 383.595 171.74 383.595 383.594 0 211.853-171.742 383.595-383.595 383.595z m84.234-536.303c-23.312-22.227-52.78-33.34-88.407-33.34-32.135 0-58.813 9.572-80.04 28.72-21.228 19.143-33.341 43.953-36.337 74.421l44.952 5.994c5.159-25.474 13.943-43.829 26.347-55.067 12.402-11.238 27.511-16.858 45.329-16.858 21.141 0 38.997 7.325 53.568 21.978 14.566 14.648 21.852 32.798 21.852 54.442 0 20.643-6.744 37.668-20.23 51.071-13.484 13.4-30.635 20.104-51.444 20.104-8.492 0-19.067-1.666-31.717-4.995l4.995 39.459c2.996-0.336 5.408-0.5 7.24-0.5 19.145 0 36.378 4.995 51.698 14.985 15.316 9.99 22.974 25.387 22.974 46.201 0 16.482-5.58 30.132-16.733 40.957-11.154 10.82-25.56 16.233-43.203 16.233-17.482 0-32.053-5.495-43.704-16.483-11.656-10.988-19.147-27.47-22.476-49.447l-44.953 7.992c5.494 30.132 17.981 53.482 37.46 70.052 19.48 16.564 43.703 24.848 72.673 24.848 19.978 0 38.374-4.288 55.191-12.861 16.815-8.577 29.676-20.272 38.586-35.089 8.904-14.82 13.361-30.554 13.361-47.2 0-15.819-4.246-30.218-12.737-43.204s-21.063-23.31-37.71-30.967c21.64-4.994 38.46-15.359 50.447-31.092 11.986-15.733 17.98-35.423 17.98-59.062 0-31.97-11.656-59.066-34.962-81.292zM322.347-58.32299999999998c0-12.138-9.84-21.977-21.977-21.977-5.925 0-11.279 2.371-15.23 6.183C116.23 9.397000000000048 0.02 183.35799999999995 0.02 384.541 0.021 667.011 229.01 896 511.481 896c101.067 0 195.28-29.327 274.616-79.917l-0.107-0.168c5.546-3.99 9.19-10.458 9.19-17.812 0-12.137-9.839-21.976-21.976-21.976-6.843 0-12.88 3.194-16.91 8.097C685.018 827.987 601.25 853.378 511.48 853.378c-258.931 0-468.837-209.905-468.837-468.837 0-185.88 108.227-346.403 265.057-422.234 8.514-3.03 14.647-11.076 14.647-20.63z"  horiz-adv-x="1024" />

    
    <glyph glyph-name="shuzisi" unicode="&#58973;" d="M511.48016 768.135844c-211.854059 0-383.594515-171.742503-383.594515-383.594515 0-211.854059 171.740456-383.594515 383.594515-383.594515 211.850989 0 383.594515 171.740456 383.594515 383.594515C895.073652 596.3923179999999 723.331149 768.135844 511.48016 768.135844zM637.365242 290.59772699999996l-49.447179 0 0-87.657432-44.952818 0 0 87.657432L384.132774 290.59772699999996l0 41.206494 167.073156 237.249449 36.71111 0 0-237.249449 49.447179 0L637.364219 290.59772699999996zM428.336532 331.804221l114.628714 165.074639 0-165.074639L428.336532 331.804221zM322.346569-58.323081c0-12.138458-9.841136-21.976524-21.976524-21.976524-6.53995 0-12.247952 2.989077-16.271592 7.520277C115.947755 10.991587999999979 0.021489 183.91805599999998 0.021489 384.541329c0 282.46935 228.987275 511.458671 511.458671 511.458671 99.114368 0 191.297884-28.701692 269.65244-77.519538 1.305739-0.509606 2.364861-1.349741 3.535523-2.088568 0.384763-0.24457 0.796132-0.455371 1.180895-0.699941l-0.044002-0.070608c5.536087-3.990894 9.375531-10.17371 9.375531-17.517979 0-12.138458-9.841136-21.976524-21.976524-21.976524-6.318916 0-11.919471 2.741437-15.928784 7.010671C685.748183 827.369923 601.759303 853.378274 511.48016 853.378274c-258.931261 0-468.836945-209.905684-468.836945-468.836945 0-187.080839 109.849874-348.092953 268.320095-423.310052l-0.24457-0.514723C317.539077-43.01441999999997 322.346569-50.00155500000005 322.346569-58.323081z"  horiz-adv-x="1024" />

    
    <glyph glyph-name="shuzitu-5" unicode="&#58974;" d="M311.797305-39.283446000000026l0.24457 0.514723C153.571654 36.44837600000005 43.721781 197.46049000000005 43.721781 384.541329c0 258.931261 209.905684 468.836945 468.836945 468.836945 90.279143 0 174.269046-26.009374 245.795079-70.240761 4.00829-4.269233 9.609869-7.010671 15.928784-7.010671 12.135388 0 21.976524 9.839089 21.976524 21.976524 0 7.344269-3.839445 13.527085-9.375531 17.517979l0.044002 0.070608c-0.384763 0.24457-0.796132 0.455371-1.180895 0.699941-1.170662 0.738827-2.229784 1.578961-3.535523 2.088568-78.354556 48.817846-170.538071 77.519538-269.65244 77.519538-282.471396 0-511.458671-228.989321-511.458671-511.458671 0-200.623273 115.926266-373.549741 284.076964-457.320657 4.024663-4.5312 9.731642-7.520277 16.271592-7.520277 12.135388 0 21.976524 9.839089 21.976524 21.976524C323.426157-50.00155500000005 318.618665-43.01441999999997 311.797305-39.283446000000026zM512.558725 768.135844c-211.854059 0-383.593492-171.742503-383.593492-383.594515 0-211.854059 171.740456-383.594515 383.593492-383.594515 211.850989 0 383.594515 171.740456 383.594515 383.594515C896.15324 596.3923179999999 724.410738 768.135844 512.558725 768.135844zM603.488691 255.47274100000004c-23.474644-29.635971-55.527664-44.452421-96.148827-44.452421-33.30043 0-60.479443 9.322319-81.539085 27.971052-21.062711 18.644639-33.089629 43.367717-36.086893 74.17128l47.199998 3.994987c3.496637-22.975271 11.612479-40.250726 24.348548-51.820226 12.737092-11.574616 28.095895-17.35732 46.076408-17.35732 21.640879 0 39.95806 8.15575 54.94131 24.474414 14.985296 16.314571 22.476921 37.960567 22.476921 64.930825 0 25.637913-7.203052 45.865607-21.601994 60.686151-14.403035 14.81645-33.257451 22.227234-56.565297 22.227234-14.483876 0-27.556613-3.289929-39.207977-9.864672-11.655458-6.579859-20.814048-15.110139-27.470655-25.599028l-42.205241 5.494131 35.462676 188.050933L615.226013 578.380082l0-42.954301L469.130633 535.4257809999999l-19.729344-98.396008c21.977547 15.315824 45.034682 22.975271 69.177546 22.975271 31.966039 0 58.938344-11.07422 80.913844-33.214473 21.977547-22.144346 32.965809-50.613748 32.965809-85.409229C632.458489 308.24975900000004 622.799502 279.61151099999995 603.488691 255.47274100000004z"  horiz-adv-x="1024" />

    
    <glyph glyph-name="shuziba" unicode="&#58975;" d="M310.71925-39.283446000000026l0.24457 0.514723C152.493599 36.44837600000005 42.643726 197.46049000000005 42.643726 384.541329c0 258.931261 209.905684 468.836945 468.836945 468.836945 90.279143 0 174.269046-26.009374 245.794056-70.240761 4.00829-4.269233 9.609869-7.010671 15.928784-7.010671 12.135388 0 21.976524 9.839089 21.976524 21.976524 0 7.344269-3.839445 13.527085-9.375531 17.517979l0.044002 0.070608c-0.384763 0.24457-0.796132 0.455371-1.180895 0.699941-1.170662 0.738827-2.229784 1.578961-3.535523 2.088568-78.354556 48.817846-170.538071 77.519538-269.65244 77.519538-282.47242 0-511.458671-228.989321-511.458671-511.458671 0-200.623273 115.926266-373.549741 284.076964-457.320657 4.024663-4.5312 9.731642-7.520277 16.271592-7.520277 12.135388 0 21.976524 9.839089 21.976524 21.976524C322.347079-50.00155500000005 317.539586-43.01441999999997 310.71925-39.283446000000026zM512.079304 433.03888c17.314341 0 31.504528 5.451152 42.578748 16.35755 11.070126 10.902304 16.60826 24.263613 16.60826 40.082904 0 16.482393-5.705955 30.343075-17.108656 41.581024-11.404748 11.237949-25.596981 16.856923-42.578748 16.856923-17.150612 0-31.384801-5.494131-42.704614-16.482393-11.323906-10.988262-16.981766-24.14184-16.981766-39.458687 0-17.317411 5.575995-31.466666 16.73208-42.454928C479.777621 438.533011 494.261497 433.03888 512.079304 433.03888zM510.829847 396.32777c-21.145599 0-38.669718-6.992251-52.569286-20.977777-13.902638-13.985526-20.852934-31.466666-20.852934-52.444443 0-12.822027 3.036149-25.223474 9.115612-37.210483 6.076392-11.987009 15.109116-21.270443 27.096125-27.845185 11.987009-6.579859 24.886807-9.865695 38.709627-9.865695 21.47715 0 39.206954 6.907317 53.193503 20.72809 13.984503 13.817704 20.977777 31.381731 20.977777 52.694129 0 21.640879-7.203052 39.540552-21.603017 53.6939C550.495242 389.249561 532.47175 396.32777 510.829847 396.32777zM511.48067 768.135844c-211.854059 0-383.594515-171.742503-383.594515-383.594515 0-211.854059 171.740456-383.594515 383.594515-383.594515 211.850989 0 383.594515 171.740456 383.594515 383.594515C895.074162 596.3923179999999 723.331659 768.135844 511.48067 768.135844zM599.23634 242.98942899999997c-22.145369-21.313422-51.280944-31.966039-87.406722-31.966039-36.129872 0-65.267493 10.695596-87.407746 32.090882-22.144346 21.391193-33.214473 48.073902-33.214473 80.040964 0 23.807219 6.033413 43.742247 18.105357 59.811224 12.068873 16.064884 29.258371 27.01119 51.570539 32.839943-18.648732 6.824429-32.465412 16.564257-41.456181 29.219485-8.990768 12.650111-13.486152 27.802206-13.486152 45.452191 0 26.635637 9.572006 49.030693 28.719088 67.179029 19.144012 18.144242 44.617174 27.220968 76.419484 27.220968 31.966039 0 57.688887-9.282411 77.16752-27.845185 19.48068-18.566868 29.220508-41.167608 29.220508-67.803245 0-16.981766-4.456498-31.759331-13.361309-44.327578-8.90788-12.57234-22.437012-22.269189-40.582277-29.094642 22.476921-7.328919 39.58353-19.147082 51.320852-35.462676 11.738345-16.318664 17.605983-35.797297 17.605983-58.437947C632.451836 290.602843 621.377616 264.298757 599.23634 242.98942899999997z"  horiz-adv-x="1024" />

    
    <glyph glyph-name="shuzijiu" unicode="&#58976;" d="M322.346569-58.323081c0-12.138458-9.841136-21.976524-21.976524-21.976524-6.53995 0-12.247952 2.989077-16.271592 7.520277C115.947755 10.991587999999979 0.021489 183.91805599999998 0.021489 384.541329c0 282.46935 228.987275 511.458671 511.458671 511.458671 99.114368 0 191.297884-28.701692 269.65244-77.519538 1.305739-0.509606 2.364861-1.349741 3.535523-2.088568 0.384763-0.24457 0.796132-0.455371 1.180895-0.699941l-0.044002-0.070608c5.536087-3.990894 9.375531-10.17371 9.375531-17.517979 0-12.138458-9.841136-21.976524-21.976524-21.976524-6.318916 0-11.919471 2.741437-15.928784 7.010671C685.748183 827.369923 601.759303 853.378274 511.48016 853.378274c-258.931261 0-468.836945-209.905684-468.836945-468.836945 0-187.080839 109.849874-348.092953 268.320095-423.310052l-0.24457-0.514723C317.539077-43.01441999999997 322.346569-50.00155500000005 322.346569-58.323081zM512.327458 547.66657c-19.978007 0-37.378306-8.159844-52.194756-24.474414-14.820544-16.318664-22.226211-37.46017-22.226211-63.432705 0-23.311939 7.03216-42.24822 21.10262-56.814983 14.06739-14.569834 31.423687-21.851681 52.069913-21.851681 20.809955 0 37.916565 7.280824 51.319829 21.851681 13.400195 14.566764 20.103874 34.752502 20.103874 60.561307 0 25.804712-6.867408 46.283116-20.603247 61.435211C548.164664 540.088988 531.639293 547.66657 512.327458 547.66657zM895.073652 384.541329c0-211.854059-171.742503-383.594515-383.594515-383.594515-211.854059 0-383.594515 171.740456-383.594515 383.594515 0 211.850989 171.740456 383.594515 383.594515 383.594515C723.331149 768.135844 895.073652 596.3923179999999 895.073652 384.541329zM632.450303 407.814382c0 44.951795-5.119601 79.290881-15.358803 103.015212s-25.222451 41.99444-44.952818 54.816466c-19.72832 12.817933-41.49916 19.22997-65.305355 19.22997-32.964786 0-60.396555-11.323906-82.288145-33.963533-21.894659-22.64372-32.839943-52.5304-32.839943-89.654926 0-35.96205 10.488889-64.930825 31.466666-86.908372 20.977777-21.976524 46.614667-32.964786 76.918857-32.964786 18.144242 0 35.001165 4.452405 50.570769 13.361309 15.566534 8.903787 27.846208 20.517289 36.835953 34.837436 0.163729-3.994987 0.249687-6.992251 0.249687-8.989745 0-18.648732-2.24718-36.960797-6.742565-54.94131s-10.075473-32.258705-16.733103-42.829458c-6.6607-10.574846-15.195074-19.023262-25.598005-25.348318-10.407024-6.330172-22.518876-9.490142-36.33658-9.490142-16.150842 0-29.387307 4.578272-39.708374 13.735839-10.32516 9.154497-17.317411 23.889083-20.977777 44.202735l-43.203988-3.994987c3.660366-28.805046 14.566764-51.157123 32.715099-67.054185 18.144242-15.901155 41.538045-23.850198 70.175269-23.850198 26.971281 0 50.485835 7.242961 70.549799 21.726837 20.060895 14.484899 35.170011 35.58752 45.327348 63.307861C627.369587 323.77740700000004 632.450303 361.02779899999996 632.450303 407.814382z"  horiz-adv-x="1024" />

    
    <glyph glyph-name="shuziba1" unicode="&#58977;" d="M512 768c-211.968 0-383.488-171.52-383.488-383.488S300.032 1.024000000000001 512 1.024000000000001s383.488 171.52 383.488 383.488S723.968 768 512 768zM310.784-39.42399999999998v0.512c-158.72 75.264-268.288 236.032-268.288 423.424 0 259.072 209.92 468.992 468.992 468.992 90.112 0 174.08-26.112 245.76-70.144 4.096-4.096 9.728-7.168 15.872-7.168 12.288 0 22.016 9.728 22.016 22.016 0 7.168-3.584 13.312-9.216 17.408-0.512 0-1.024 0.512-1.024 0.512-1.024 0.512-2.048 1.536-3.584 2.048-78.336 49.152-170.496 77.824-269.824 77.824-282.624 0-511.488-228.864-511.488-511.488 0-200.704 115.712-373.76 284.16-457.216 4.096-4.608 9.728-7.68 16.384-7.68 12.288 0 22.016 9.728 22.016 22.016 0 8.192-5.12 15.36-11.776 18.944zM411.136 205.82399999999996h-45.056v286.72c-10.752-10.24-25.088-20.48-42.496-31.232-17.408-10.24-33.28-17.92-47.616-23.04v43.52c25.088 11.776 47.104 26.112 66.048 43.008 18.944 16.896 32.256 33.28 39.936 49.152h29.184v-368.128zM526.336 386.56c0 43.52 4.608 78.336 13.312 104.448 8.704 26.624 22.016 46.592 39.936 60.928 17.408 14.336 39.936 21.504 66.56 21.504 19.456 0 36.864-4.096 51.712-11.776s27.136-19.456 36.864-34.304c9.728-14.848 17.408-33.28 22.528-54.272 5.632-21.504 8.192-50.176 8.192-86.528 0-43.008-4.608-77.824-13.312-103.936-8.704-26.624-22.016-46.592-39.424-61.44-17.408-14.336-39.936-21.504-66.56-21.504-35.328 0-62.976 12.8-83.456 37.888-24.576 30.208-36.352 79.872-36.352 148.992z m46.08 0c0-60.416 7.168-100.352 20.992-120.32 14.336-19.968 31.232-29.696 52.224-29.696 20.48 0 37.888 10.24 52.224 30.208 14.336 19.968 20.992 59.904 20.992 119.808 0 60.416-7.168 100.352-20.992 120.32-14.336 19.968-31.744 29.696-52.736 29.696-20.48 0-37.376-8.704-49.664-26.112-15.36-22.528-23.04-64-23.04-123.904z"  horiz-adv-x="1024" />

    
    <glyph glyph-name="leidatuisong" unicode="&#58917;" d="M968.192 287.744c-52.539077 0-95.212308 43.264-95.212308 96.256 0 53.248 42.673231 96.256 95.212308 96.256S1063.384615 437.248 1063.384615 384c0-52.992-42.653538-96.256-95.192615-96.256z m-508.278154 37.513846c-28.868923 22.646154-34.048 64.630154-11.638154 93.952v-0.019692c3.268923 4.608 7.463385 8.585846 11.638154 11.776L876.524308 758.272 552.822154 337.033846a65.516308 65.516308 0 0 0-92.908308-11.776zM712.211692 767.232a428.740923 428.740923 0 0 1-205.843692 52.736C268.642462 819.968 75.067077 624.521846 75.067077 384c0-240.502154 193.437538-435.968 431.182769-435.968 166.222769 0 319.389538 98.185846 390.281846 250.249846 8.979692 18.688 31.271385 26.998154 49.99877 18.038154a38.144 38.144 0 0 0 17.979076-50.569846C881.211077-12.8 701.321846-128 506.368-128 227.229538-128 0 101.769846 0 384 0 666.249846 227.229538 896 506.368 896c84.440615 0 167.995077-21.504 241.801846-61.952a38.242462 38.242462 0 0 0 15.064616-51.593846 37.494154 37.494154 0 0 0-51.02277-15.222154z"  horiz-adv-x="1063" />

    
    <glyph glyph-name="simifabu" unicode="&#58918;" d="M801.19347823-66H222.80652177C134.13695644-66 62 5.9413040099999535 62 94.35652177999998V397.51956533c0 87.94565244 71.39347823 159.53478223 159.41739112 160.27826045C224.01956533 710.52391289 353.26739112 834 512 834s287.98043467-123.47608711 290.58260888-276.20217422c88.02391289-0.76304356 159.41739112-72.33260888 159.41739112-160.27826045v-303.16304356C962 5.9413040099999535 889.86304356-66 801.19347823-66zM512 767.10652177c-121.69565244 0-220.83260888-93.46304356-223.49347823-209.23043466h446.98695646C732.83260888 673.64347822 633.69565244 767.10652177 512 767.10652177z m385.66956533-369.58695644c0 53.04130401-43.27826045 96.20217422-96.4760871 96.20217422H776.13043467c-2.28913066-0.46956533-4.42173955-1.36956533-6.84782579-1.36956533-2.42608711 0-4.55869599 0.9-6.82826132 1.36956533H261.54565244c-2.26956533-0.46956533-4.42173955-1.36956533-6.84782666-1.36956533-2.42608711 0-4.55869599 0.9-6.82826045 1.36956533H222.80652177c-53.19782578 0-96.47608711-43.16086933-96.4760871-96.20217422v-303.16304356c0-53.04130401 43.27826045-96.20217422 96.4760871-96.20217421h578.38695646c53.19782578 0 96.47608711 43.16086933 96.4760871 96.20217421V397.51956533zM576.31086933 179.46521778v-51.1826089c0-35.68695644-28.83913067-64.81956533-64.31086933-64.81956532s-64.31086933 29.09347822-64.31086933 64.81956532v51.1826089a128.21086933 128.21086933 0 0 0-64.33043468 110.68043466c0 70.74782578 57.69782578 128.28913066 128.64130401 128.28912979 70.94347823 0 128.64130401-57.54130401 128.64130401-128.28912979 0-46.01739112-25.08260888-88.02391289-64.33043467-110.68043466zM512 354.31956533000005a64.29130401 64.29130401 0 0 1-64.31086933-64.13478311 64.13478223 64.13478223 0 0 1 42.92608711-60.10434755A32.12608711 32.12608711 0 0 0 512 199.83260887999995c0 13.57826045 8.56956533 25.66956533 21.38478222 30.20869513a64.19347822 64.19347822 0 0 1 42.92608711 60.14347822A64.29130401 64.29130401 0 0 1 512 354.31956533000005z"  horiz-adv-x="1024" />

    
    <glyph glyph-name="zhijiefabu" unicode="&#58919;" d="M1039.11718625 830.06769188v0.11076937c0 0.86769188 0 1.84615406-0.11076937 2.73230813 0 0.20307656 0 0.53538469-0.11076938 0.7569225l-0.33230719 2.28923156c0 0.22153875-0.09230812 0.44307656-0.09230812 0.64615312l-0.66461531 2.73230813c-0.11076937 0.33230813-0.22153875 0.55384594-0.22153782 0.77538469a23.59384594 23.59384594 0 0 1-0.64615406 1.84615406l-0.33230813 0.97846125a17.20615406 17.20615406 0 0 1-1.08923062 2.28923062c-0.09230812 0.33230813-0.31384594 0.55384594-0.42461531 0.88615407a18.75692344 18.75692344 0 0 0-0.97846125 1.73538468l-0.66461532 0.9969225c-0.42461531 0.64615406-0.86769188 1.18153875-1.29230812 1.84615407-0.11076937 0.22153875-0.33230813 0.33230813-0.44307656 0.53538468-0.53538469 0.77538469-1.2 1.42153875-1.84615407 2.08615407a2.52923063 2.52923063 0 0 0-0.55384593 0.64615406c-0.64615406 0.66461531-1.29230813 1.2-1.95692344 1.86461531L1027.1356475 856.02461531l-0.09230719 0.11076938c-0.66461531 0.55384594-1.31076938 0.99692344-1.97538468 1.53230719-0.11076937 0.11076937-0.31384594 0.22153875-0.42461532 0.33230812-0.22153875 0.22153875-0.55384594 0.33230813-0.75692344 0.44307656a22.08 22.08 0 0 1-1.86461531 1.08923157l-0.7569225 0.42461531c-0.75692344 0.44307656-1.62461531 0.77538469-2.4 1.2a3.82153875 3.82153875 0 0 0-0.97846218 0.44307656l-1.73538469 0.66461531-1.08923063 0.31384594-2.62153875 0.66461531c-0.22153875 0-0.42461531 0.11076937-0.7569225 0.11076938l-2.17846125 0.31384594c-0.33230813 0-0.64615406 0.11076937-0.97846218 0.11076937-0.75692344 0.11076937-1.62461531 0.11076937-2.4 0.11076938h-0.42461532c-0.97846125 0-1.86461531 0-2.84307656-0.11076938-0.20307656 0-0.42461531 0-0.75692344-0.11076937l-2.28923062-0.31384594c-0.20307656 0-0.42461531-0.11076937-0.64615406-0.11076938l-2.71384594-0.66461531c-0.22153875-0.11076937-0.44307656-0.11076937-0.66461532-0.22153781-0.64615406-0.22153875-1.40307656-0.42461531-2.06769281-0.64615406a3.82153875 3.82153875 0 0 1-0.97846125-0.4430775c-0.66461531-0.20307656-1.2-0.11076937-1.84615406-0.42461532-0.22153875-0.11076937-0.55384594 0-0.88615312 0L96.78487906 392.25230813a33.67384594 33.67384594 0 1 1 0.44307657-59.68615407l239.92615406-121.44a33.23076938 33.23076938 0 0 1 44.75076937 14.73230719 33.41538469 33.41538469 0 0 1-14.69538468 44.8430775l-182.14153875 92.10461531 688.24615406 360.42461531-424.24615406-509.70461531a33.32307656 33.32307656 0 0 1-7.73538469-21.39692344V-62.76923063000004c0-18.44307656 14.91692344-33.39692344 33.32307656-33.39692343 18.38769187 0 33.30461531 14.95384594 33.30461531 33.39692343V180.01846124999997L955.50487906 717.76615406l-101.88923156-690.51692343-240.16615313 119.4830775a33.28615406 33.28615406 0 0 1-44.62153875-15.04615407 33.47076938 33.47076938 0 0 1 15.00923063-44.75076937l281.20615406-139.88307656c4.68923062-2.28923063 9.69230813-3.48923063 14.80615406-3.48923157 5.33538469 0 10.56 1.29230813 15.45230719 3.8030775 9.47076937 4.91076938 16.00615406 14.08615406 17.53846125 24.66461532l125.94461625 853.34769187c0 0.31384594 0.11076937 0.64615406 0.11076844 0.86769281 0 0.33230813 0.11076937 0.64615406 0.11076937 0.97846125 0 0.97846125 0.11076937 1.95692344 0.11076938 2.84307657z"  horiz-adv-x="1090" />

    
    <glyph glyph-name="bizhongguanli" unicode="&#58920;" d="M512-66C263.87692315-66 62 135.87692315000004 62 384c0 120.80769258 46.62692315 233.96538428 131.33076943 318.66923057C278.03461572 787.37307685 391.19230742 834.03461572 512 834.03461572c96.05769258 0 187.65-30.01153886 264.98076943-86.74615458 2.11153886-0.10384628 2.83846113-0.65769258 4.91538429-2.73461485 112.46538428-85.84615372 178.2-217.35 180.10384628-360.51923056C962 135.87692315000004 760.12307685-66 512-66z m0 851.4C294.40769258 785.4 110.63461573 601.55769258 110.63461573 384c0-106.92692315 44.93076943-212.43461573 123.36923055-289.83461572l35.86153799 39.42692314C201.88076943 200.46923057000004 164.46153886 289.29230742000004 164.46153886 384 164.46153886 575.63076943 320.36923057 731.53846114 512 731.53846114c68.01923057 0 132.50769258-18.76153887 186.68076943-54.31153799l34.09615372 41.22692314C666.10769258 762.24230742 589.85 785.4 512 785.4z m0-700.30384629c79.89230742 0 155.00769258 31.5 211.53461573 88.71923057a292.18846114 292.18846114 0 0 1 85.3961537 210.15c0 164.83846113-134.1 298.93846113-298.90384628 298.938462-164.80384628 0-298.86923057-134.1-298.86923057-298.90384628 0-164.80384628 134.96538427-298.90384629 300.84230742-298.90384629z m258.50769258 604.59230743l-32.12307686-39.28846114a346.88076943 346.88076943 0 0 0 121.15384541-264.42692315c0-191.63076943-155.90769258-347.53846114-347.53846113-347.53846112-73.31538427 0-144.03461573 22.88076943-204.57692315 66.15l-35.96538427-39.53076944A391.70769258 391.70769258 0 0 1 512-17.36538427000005c217.55769258 0 401.4 183.80769258 401.4 401.36538427 0 116.72307685-52.06153887 227.97692315-142.89230742 305.68846114zM395.79615371 404.59615371a22.32692315 22.32692315 0 0 0 0 44.58461572h69.3L394.58461572 519.65769258a22.32692315 22.32692315 0 0 0 0 31.53461484 22.84615372 22.84615372 0 0 0 31.53461485 0l87.43846201-87.43846113 87.43846114 87.43846113a22.84615372 22.84615372 0 0 0 31.5 0 22.15384628 22.15384628 0 0 0 0-31.53461484l-70.47692315-70.47692315h67.18846201a22.29230742 22.29230742 0 0 0 0-44.58461571h-94.43076943v-38.00769258h94.43076943a22.32692315 22.32692315 0 0 0 0-44.58461485h-94.43076943v-89.96538515a22.29230742 22.29230742 0 0 0-44.55 0v89.96538515H395.79615371a22.32692315 22.32692315 0 0 0 0 44.58461485h94.43076944v38.00769258H395.79615371z"  horiz-adv-x="1024" />

    
    <glyph glyph-name="ziduankongzhi" unicode="&#58921;" d="M834.4499082-65.98242890999995h-644.97481347C150.21412753-65.98242890999995 118.26537471-32.45873759999995 118.26537471 8.789651950000007V759.24784658C118.26537471 800.4587376 150.21412753 833.98242891 189.47509472 833.98242891h645.4247959c19.04925586 0 36.936058-7.87469238 50.43553067-22.1991337 13.34947852-14.21194482 20.5866958-32.88621622 20.36170547-52.64794424v-750.34569902c0-41.24838955-31.94875283-74.77207998-71.24721856-74.77208086z m12.0745292 825.23027549c0 6.59974219-5.324792 12.18702393-11.62454677 12.1870248H189.47509472c-6.29975391 0-11.58704737-5.58728174-11.58704824-12.1870248v-750.45819463c0-6.63724073 5.28729346-12.22452246 11.58704824-12.22452333h645.4247959c6.29975391 0 11.6245459 5.58728174 11.62454678 12.22452333V759.24784658z m-42.52333974-662.33663613h-259.07738292l-322.44990907-0.93746338h-0.03749854c-16.4243584 0-29.81133633 14.02445215-29.81133545 31.2737792 0 17.54931445 13.08698877 31.31127773 29.81133545 31.31127685l322.48740761 0.89996485h259.07738292c16.72434668 0 29.84883487-13.7619624 29.84883398-31.27377833 0-17.54931445-13.12448731-31.2737792-29.84883398-31.27377919z m-47.92312881 172.38076875h-174.06820283c-16.68684815 0-29.77383779 13.72446387-29.77383691 31.27377919 0 17.54931445 13.08698877 31.2737792 29.77383691 31.27377833h174.06820283c16.68684815 0 29.77383779-13.72446387 29.77383779-31.27377832 0-17.54931445-13.08698877-31.2737792-29.77383779-31.2737792z m0 167.58095625h-174.06820283c-16.68684815 0-29.77383779 13.72446387-29.77383691 31.27377832 0 17.54931445 13.08698877 31.31127773 29.77383691 31.31127774h174.06820283c16.68684815 0 29.77383779-13.7619624 29.77383779-31.31127774 0-17.54931445-13.08698877-31.2737792-29.77383779-31.27377832z m0 184.71778682h-174.06820283c-16.68684815 0-29.77383779 13.72446387-29.77383691 31.27377919 0 17.54931445 13.08698877 31.2737792 29.77383691 31.27377833h174.06820283c16.68684815 0 29.77383779-13.72446387 29.77383779-31.27377833 0-17.54931445-13.08698877-31.2737792-29.77383779-31.27377919z m-244.37795713 0H400.0668708v-350.61130899c0-17.24932617-13.34947852-31.31127773-29.81133545-31.31127685-16.68684815 0-29.81133633 13.7619624-29.81133633 31.31127685v350.61130899H228.77355958c-16.68684815 0-29.77383779 13.72446387-29.77383692 31.27377919 0 17.54931445 13.08698877 31.2737792 29.77383691 31.27377833h133.00730596a28.87387207 28.87387207 0 0 0 8.47466982 1.42494433c2.99988281 0 5.81227295-0.59997656 8.51216748-1.42494433h132.93230889c16.72434668 0 29.81133633-13.72446387 29.81133545-31.27377833 0-17.54931445-13.08698877-31.2737792-29.81133545-31.27377919z"  horiz-adv-x="1024" />

    
    <glyph glyph-name="caiwuliushui" unicode="&#58923;" d="M990.25120531-53.018181560000016H200.64147406c-70.85514469 0-128.54213344 53.89351313-128.54213344 120.12672187V521.8459574999999c0 66.23320875 57.68698875 120.12672187 128.54213344 120.12672187H990.25120531c70.89874781 0 128.54213344-53.89351313 128.5421325-120.12672187v-454.73741719c0-66.23320875-57.64338563-120.12672187-128.5421325-120.12672187z m55.11440156 574.86413906c0 28.38566062-24.72299531 51.45173531-55.11440156 51.45173531H200.64147406c-30.34780311 0-55.07079844-23.06607469-55.07079844-51.45173531v-454.73741719c0-28.38566062 24.72299531-51.49533938 55.07079844-51.49533937H990.25120531c30.39140625 0 55.11440156 23.10967781 55.11440156 51.49533937V521.8459574999999zM766.34894844 323.32074280999996h-142.14632157v-59.25670219h142.14632157c15.8715525 0 28.77808969-12.03447375 28.77808875-26.90315343 0-14.86867969-12.90653719-26.85955031-28.77808875-26.85955032h-142.14632157v-126.75440343c0-14.82507655-12.86293406-26.85955031-28.73448562-26.85955031-15.91515562 0-28.77808969 12.03447375-28.77808969 26.85955031v126.75440345h-142.14632062c-15.91515562 0-28.77808969 11.99087062-28.77808969 26.8595503 0 14.86867969 12.86293406 26.90315344 28.77808969 26.90315343h142.14632062V323.32074280999996h-142.14632062c-15.91515562 0-28.77808969 12.07807687-28.77808969 26.90315344 0 14.82507655 12.86293406 26.90315344 28.77808969 26.90315344h110.79564468L425.50300062 479.7689025a25.72586813 25.72586813 0 0 0 1e-8 38.02196063 30.26059689 30.26059689 0 0 0 40.72535624 0l130.80949782-122.21967469L727.76014625 517.7908631299999a30.26059689 30.26059689 0 0 0 40.72535718 0 25.63866187 25.63866187 0 0 0 0-38.02196063l-109.79277187-102.64185281h107.65621688c15.8715525 0 28.77808969-12.07807687 28.77808875-26.90315344 0-14.82507655-12.90653719-26.90315344-28.77808875-26.90315344z m220.45760625 361.25223H204.08612375c-20.27547188 0-36.71386594 15.39191719-36.71386594 34.31569125 0 18.96737719 16.43839313 34.31569125 36.71386594 34.31569125h782.72043094c20.27547188 0 36.75746906-15.34831406 36.75746906-34.31569125 0-18.92377406-16.48199625-34.31569125-36.75746906-34.31569125zM889.26627312 794.67096656H301.67000938c-20.319075 0-36.75746906 15.39191719-36.75746907 34.31569125 0 18.96737719 16.48199625 34.31569125 36.75746906 34.31569125h587.59626375c20.27547188 0 36.75746906-15.34831406 36.75746813-34.31569125 0-18.92377406-16.48199625-34.31569125-36.75746813-34.31569125z"  horiz-adv-x="1211" />

    
    <glyph glyph-name="canshupeizhi" unicode="&#58925;" d="M793.35384629-65.86153887c-73.69615371 0-133.99615372 57.84230742-133.99615371 128.52692315 0 59.53846114 42.95769258 109.52307685 100.48846113 123.95769257V801.70384629c0 19.28076943 13.39615372 32.15769258 33.50769258 32.15769257 20.07692315 0 33.47307685-12.87692315 33.47307686-32.15769258v-615.08076943c57.53076943-14.43461573 100.48846113-64.41923057 100.48846112-123.95769257 0-70.68461573-60.26538427-128.52692315-133.96153798-128.52692314z m-1e-8 192.80769258c-40.18846113 0-66.98076943-25.71923057-66.98076943-64.28076943 0-38.56153887 26.79230742-64.24615371 66.98076943-64.24615371s66.98076943 25.68461572 66.98076945 64.24615371-26.79230742 64.28076943-66.98076945 64.28076943z m-234.48461571 165.25384629v-325.93846114c0-19.28076943-13.39615372-32.12307685-33.5076917-32.12307773-20.07692315 0-33.47307685 12.84230742-33.47307773 32.12307773v325.93846114c-57.53076943 14.4-100.48846113 64.38461573-100.48846114 123.92307685 0 59.81538427 43.33846114 110.04230742 101.28461573 124.16538428-0.20769258 1.52307685-0.79615372 2.76923057-0.79615459 4.36153887V801.70384629c0 19.28076943 13.39615372 32.15769258 33.47307773 32.15769257 20.11153887 0 33.50769258-12.87692315 33.5076917-32.15769258v-257.05384628c0-1.59230742-0.62307685-2.83846113-0.79615372-4.36153887 57.94615371-14.15769258 101.28461572-64.35 101.28461573-124.16538428 0-59.53846114-42.95769258-109.48846113-100.48846201-123.92307685z m-33.5076917 188.16923057c-40.18846113 0-66.98076943-25.68461572-66.98076944-64.24615372s26.79230742-64.24615371 66.98076944-64.2461537 66.98076943 25.68461572 66.98076855 64.2461537-26.79230742 64.24615371-66.98076855 64.24615372zM264.11923057 581.37692315v-615.11538428c0-19.28076943-13.43076943-32.12307685-33.5076917-32.12307773-20.11153887 0-33.50769258 12.84230742-33.50769258 32.12307773V581.37692315C139.60769258 595.8115388599999 96.65 645.79615371 96.65 705.3c0 70.71923057 60.26538427 128.56153887 133.96153886 128.56153886 73.66153887 0 133.99615372-57.84230742 133.99615372-128.56153886 0-59.50384628-42.99230742-109.48846113-100.48846201-123.92307685z m-33.5076917 188.20384628c-40.22307685 0-67.01538428-25.68461572-67.01538515-64.28076943 0-38.56153887 26.79230742-64.24615371 67.01538515-64.24615371 40.18846113 0 66.98076943 25.68461572 66.98076855 64.24615371 0 38.59615371-26.79230742 64.28076943-66.98076855 64.28076943z"  horiz-adv-x="1024" />

    
    <glyph glyph-name="fenquguanli" unicode="&#58927;" d="M748.31306504-65.86859032999996a212.46788144 212.46788144 0 0 0-147.08161231 58.78765459l-1.94959072 1.83711446h-0.03749238l-2.02457461 1.94959071a212.20543653 212.20543653 0 0 0-62.499375 151.01828614v187.87304619a25.75709122 25.75709122 0 0 0 51.55167393 0V147.72405557000002c0-43.30340596 16.83396474-84.01985596 47.42753993-114.61343116l1.64965343-1.68714579a161.47858974 161.47858974 0 0 1 112.96377773-45.74039414 161.44109737 161.44109737 0 0 1 114.72590743 47.35255517 161.32862109 161.32862109 0 0 1 47.39004843 114.68841592c0 42.74102461-16.45904355 83.04506016-46.30277637 113.52615907l-1.08727206 1.04977969a161.25363721 161.25363721 0 0 1-114.68841505 47.50252471h-64.03655214a25.8320751 25.8320751 0 0 0 0 51.55167393h64.03655214a212.20543653 212.20543653 0 0 0 151.05577852-62.53686738l1.42470088-1.57466866a212.13045263 212.13045263 0 0 0 61.149658-149.51860136c0-56.98803252-22.23283096-110.60177344-62.57435888-150.94330225a212.28042128 212.28042128 0 0 0-151.0932709-62.64934365z m-472.66324101 0c-56.23819013 0-109.40202597 21.74543349-149.59358526 61.22464277l-1.27473223 1.16225596A212.50537383 212.50537383 0 0 0 62.05717901 147.72405557000002c0 57.10050879 22.23283096 110.75174209 62.53686737 151.09327001a212.20543653 212.20543653 0 0 0 151.05577765 62.53686739h187.91053945c14.20951641 0 25.75709122-11.5475748 25.75709033-25.71959883V147.72405557000002c0-56.98803252-22.23283096-110.60177344-62.57435889-150.94330225a212.28042128 212.28042128 0 0 0-151.09327089-62.64934365z m-1e-8 375.67110937c-43.30340596 0-84.01985596-16.87145713-114.61343115-47.46503232A160.87871513 160.87871513 0 0 1 113.60885292 147.72405557000002c0-43.34089834 16.83396474-84.01985596 47.42753995-114.61343116l1.16225596-1.19974834a161.17865244 161.17865244 0 0 1 113.4511752-46.22779159 161.40360498 161.40360498 0 0 1 114.72590829 47.35255516 161.32862109 161.32862109 0 0 1 47.39004757 114.68841593v162.07846347H275.64982403z m284.79019483 96.95463926a25.75709122 25.75709122 0 0 0-25.71959883 25.75709121v187.83555469a212.20543653 212.20543653 0 0 0 62.53686651 151.09327002 212.20543653 212.20543653 0 0 0 151.05577851 62.53686739 212.20543653 212.20543653 0 0 0 151.0932709-62.53686739l2.54946445-2.54946445 1.34971612-1.61216104a212.58035859 212.58035859 0 0 0 58.67517831-146.93164453c0-56.95054013-22.23283096-110.60177344-62.57435888-150.90580986a212.31791367 212.31791367 0 0 0-151.0932709-62.68683604h-187.87304619z m187.87304619 375.67110938a161.02868379 161.02868379 0 0 1-114.61343116-47.42753995 161.02868379 161.02868379 0 0 1-47.42753993-114.65092353v-162.0409711h162.04097109a161.32862109 161.32862109 0 0 1 114.72590743 47.39004757 161.21614482 161.21614482 0 0 1 47.39004843 114.65092353 161.21614482 161.21614482 0 0 1-46.15280772 113.37619131l-1.34971699 1.31222373a160.99119229 160.99119229 0 0 1-114.61343115 47.39004844zM275.64982403 406.7571583A212.28042128 212.28042128 0 0 0 128.49322695 465.65728916l-2.09955849 1.98708311-0.03749239-0.03749239-1.79962206 1.72463819A212.31791367 212.31791367 0 0 0 62.05717901 620.3498042c0 57.10050879 22.23283096 110.75174209 62.53686737 151.09327002A212.20543653 212.20543653 0 0 0 275.64982403 833.9799416a212.20543653 212.20543653 0 0 0 151.09327089-62.53686738l1.46219326-1.61216104a211.86800771 211.86800771 0 0 0 61.11216563-149.48110898v-187.83555469a25.79458271 25.79458271 0 0 0-25.75709034-25.75709121H275.64982403z m0 375.67110938a161.02868379 161.02868379 0 0 1-114.61343116-47.42753995 161.02868379 161.02868379 0 0 1-47.42753994-114.65092353c0-43.30340596 16.83396474-84.01985596 47.42753994-114.61343115l1.6496543-1.68714581a161.47858974 161.47858974 0 0 1 112.96377686-45.74039414h162.11595585V620.3498042c0 42.74102461-16.45904355 83.04506016-46.30277636 113.56365146l-1.12476358 1.04977969a161.17865244 161.17865244 0 0 1-114.68841592 47.46503233z"  horiz-adv-x="1024" />

    
    <glyph glyph-name="gongnengliebiao" unicode="&#58928;" d="M791.03750029-66H232.92500029C169.70000029-66 118.25-13.012500000000045 118.25 52.162500290000025V715.83749971C118.25 781.0125 169.70000029 834 232.92500029 834h558.03749942c63.15000029 0 114.67500029-52.9875 114.75-118.16250029v-663.67499942c0-65.17500029-51.45000029-118.16250029-114.67499942-118.16250029z m0 840.67499971H232.92500029c-31.5 0-57.11249971-26.39999971-57.11250058-58.8375v-663.67499942c0-32.43750029 25.61249971-58.8375 57.11250058-58.8375h558.03749942c31.46249971 0 57.07500029 26.39999971 57.07500029 58.8375l0.1125 663.67499942c0 32.43750029-25.61249971 58.8375-57.11249971 58.8375zM705.12499971 155.28750000000002H404.5625a29.25 29.25 0 0 0-28.72500029 29.62500029 29.25 29.25 0 0 0 28.72500029 29.62499942h300.56249971a29.25 29.25 0 0 0 28.72500029-29.62499942c0-16.35000029-12.86250029-29.62500029-28.72500029-29.62500029z m0 132.71249971H404.5625a29.25 29.25 0 0 0-28.72500029 29.62500029 29.25 29.25 0 0 0 28.72500029 29.62500029h300.56249971c15.8625 0 28.72500029-13.275 28.72500029-29.62500029a29.25 29.25 0 0 0-28.72500029-29.62500029z m0 132.75H404.5625a29.25 29.25 0 0 0-28.72500029 29.62500029 29.25 29.25 0 0 0 28.72500029 29.62500029h300.56249971a29.25 29.25 0 0 0 28.72500029-29.62500029c0-16.35000029-12.86250029-29.62500029-28.72500029-29.62500029z m0 132.71250058H404.5625a29.25 29.25 0 0 0-28.72500029 29.62499942 29.25 29.25 0 0 0 28.72500029 29.62500029h300.56249971c15.8625 0 28.72500029-13.275 28.72500029-29.62500029a29.25 29.25 0 0 0-28.72500029-29.62499942zM318.76250029 155.28750000000002a29.25 29.25 0 0 0-28.76250058 29.62500029 29.25 29.25 0 0 0 28.76250058 29.62499942 29.25 29.25 0 0 0 28.72499942-29.62499942 29.25 29.25 0 0 0-28.72499942-29.62500029z m0 132.71249971a29.25 29.25 0 0 0-28.76250058 29.62500029 29.25 29.25 0 0 0 28.76250058 29.62500029 29.25 29.25 0 0 0 28.72499942-29.62500029 29.25 29.25 0 0 0-28.72499942-29.62500029z m0 132.75a29.25 29.25 0 0 0-28.76250058 29.62500029 29.25 29.25 0 0 0 28.76250058 29.62500029 29.25 29.25 0 0 0 28.72499942-29.62500029 29.25 29.25 0 0 0-28.72499942-29.62500029z m0 132.71250058a29.25 29.25 0 0 0-28.76250058 29.62499942 29.25 29.25 0 0 0 28.76250058 29.62500029 29.25 29.25 0 0 0 28.72499942-29.62500029 29.25 29.25 0 0 0-28.72499942-29.62499942z"  horiz-adv-x="1024" />

    
    <glyph glyph-name="guanxitu" unicode="&#58929;" d="M878.00959619 180.96921268999995c-21.33946406 0-42.24710127-5.82966826-60.38384677-16.87724912l-2.66293477-1.61935224-103.63854463 106.87724912 1.97920899 2.87884775c22.81487432 32.60295878 34.87005176 71.25149971 34.87005175 111.73530586a195.04198301 195.04198301 0 0 1-34.65413876 111.55537793l-2.01519405 2.8428627 103.7105165 106.98520605 2.66293477-1.61935225a117.60095917 117.60095917 0 0 1 60.13194697-16.66133525C943.97121143 587.06677324 997.62574941 642.41263535 997.62574941 710.46141562 997.62574941 778.47420996 943.97121143 833.82007207 878.00959619 833.82007207c-65.96161523 0-119.65213916-55.34586123-119.65213916-123.35865645a127.38904453 127.38904453 0 0 1 16.19352247-62.11115595l1.54738125-2.7708917-103.7824875-107.05717705-2.77089083 2.01519404a181.36745332 181.36745332 0 0 1-228.94042412-11.58736465 193.31467383 193.31467383 0 0 1-62.11115596-115.83766494l-0.53978378-3.52658935H298.64134356l-0.7197126 3.20271855c-13.0627749 55.4178331-60.88764463 94.13834502-116.30547773 94.13834502C115.65453799 506.92682959 62 451.58096748 62 383.53218720999996c0-68.01279521 53.65453799-123.35865644 119.61615322-123.35865645 53.1147542 0 100.39984013 36.77728887 115.04598223 89.42423028l0.82766865 2.98680556h81.25549804l0.61175479-3.38264736c16.19352247-90.97161152 93.0947625-157.00519776 182.87884864-157.00519776 38.57656904 0 75.56977177 12.09116338 107.02119199 34.9780087l2.73490576 1.9792081 103.92642949-107.12914805-1.58336719-2.77089169a125.73370635 125.73370635 0 0 1-16.04957958-61.67932823c0-68.04878028 53.65453799-123.39464239 119.61615321-123.39464238 65.96161523 0 119.65213916 55.34586123 119.65213917 123.39464238 0 68.04878028-53.65453799 123.39464239-119.54418223 123.39464239z m-315.77369062 68.26469415a127.64094346 127.64094346 0 0 0-92.33906396 39.47620868 135.91763262 135.91763262 0 0 0-38.25269913 95.25389854c0 35.98560615 13.56657364 69.81207539 38.25269913 95.25389854a127.82087138 127.82087138 0 0 0 184.71411386 0 135.91763262 135.91763262 0 0 0 38.28868506-95.25389854c0-35.98560615-13.60255869-69.81207539-38.28868506-95.25389854a127.64094346 127.64094346 0 0 0-92.3750499-39.47620868z m315.77369062 527.58496582c35.48180742 0 64.34226299-29.76009609 64.34226299-66.39344297 0-36.59736094-28.86045557-66.35745703-64.34226299-66.35745703-13.02678896 0-25.62175107 4.03038809-35.84166328 11.15553779l-17.12914804 17.56097578a67.29308261 67.29308261 0 0 0-11.4074376 37.67692939c0 36.59736094 28.86045557 66.35745703 64.37824892 66.35745704z m0-785.63774532c-35.51779248 0-64.37824893 29.79608115-64.37824892 66.39344297s28.86045557 66.39344297 64.37824892 66.39344209c35.48180742 0 64.34226299-29.79608115 64.34226299-66.39344209s-28.86045557-66.39344297-64.34226299-66.39344297zM181.61615323 450.03358623c35.51779248 0 64.37824893-29.79608115 64.37824892-66.39344209s-28.86045557-66.35745703-64.37824893-66.35745703c-35.48180742 0-64.34226299 29.76009609-64.34226299 66.35745703 0 36.59736094 28.86045557 66.39344297 64.34226299 66.39344209z"  horiz-adv-x="1064" />

    
    </font>
</defs>
</svg>
